<?xml version="1.0" encoding="UTF-8" standalone="no"?>
<!DOCTYPE svg PUBLIC "-//W3C//DTD SVG 1.1//EN" "http://www.w3.org/Graphics/SVG/1.1/DTD/svg11.dtd">
<svg width="100%" height="100%" viewBox="0 0 101 100" version="1.1" xmlns="http://www.w3.org/2000/svg" xmlns:xlink="http://www.w3.org/1999/xlink" xml:space="preserve" xmlns:serif="http://www.serif.com/" style="fill-rule:evenodd;clip-rule:evenodd;stroke-linejoin:round;stroke-miterlimit:2;">
    <g transform="matrix(1,0,0,1,-152,0)">
        <g id="Монтажная-область1" serif:id="Монтажная область1" transform="matrix(1,0,0,1,152.288,0)">
            <rect x="0" y="0" width="100" height="100" style="fill:none;"/>
            <g transform="matrix(0.0237296,0,0,0.0237296,-11.1907,13.6332)">
                <g transform="matrix(1137.5,0,0,1137.5,532.487,1484.79)">
                    <path d="M0.053,-0.553L0.155,-0.553L0.155,-0.092L0.553,-0.092L0.553,-0L0.053,-0L0.053,-0.553Z" style="fill-rule:nonzero;"/>
                </g>
                <g transform="matrix(1137.5,0,0,1137.5,2899.16,1461.87)">
                    <path d="M0.053,-0.553L0.154,-0.553L0.154,-0.339L0.347,-0.339L0.493,-0.553L0.61,-0.553L0.434,-0.297L0.624,-0L0.504,-0L0.35,-0.247L0.154,-0.247L0.154,-0L0.053,-0L0.053,-0.553Z" style="fill-rule:nonzero;"/>
                </g>
                <g transform="matrix(1137.5,0,0,1137.5,3635.12,1461.87)">
                    <rect x="0.053" y="-0.553" width="0.102" height="0.553" style="fill-rule:nonzero;"/>
                </g>
                <g transform="matrix(1137.5,0,0,1137.5,3871.72,1461.87)">
                    <path d="M0.053,-0.553L0.155,-0.553L0.522,-0.142L0.522,-0.553L0.623,-0.553L0.623,-0L0.52,-0L0.153,-0.413L0.153,-0L0.053,-0L0.053,-0.553Z" style="fill-rule:nonzero;"/>
                </g>
                <g transform="matrix(14.6599,0,0,14.6599,1316.05,1144.36)">
                    <path d="M0,52.964C0.015,53.811 0.043,54.651 0.118,55.495C0.286,57.409 0.718,59.264 1.359,61.061C2.84,65.216 5.286,68.712 8.72,71.493C11.6,73.826 14.862,75.378 18.495,76.113C20.818,76.584 23.167,76.761 25.537,76.489C27.285,76.289 29.008,75.968 30.671,75.389C34.273,74.134 37.39,72.14 40.019,69.355C42.82,66.385 44.699,62.929 45.713,58.994C46.163,57.25 46.452,55.478 46.424,53.664C46.413,52.927 46.511,52.848 47.254,52.846C48.835,52.84 50.417,52.838 51.999,52.848C52.571,52.851 52.596,52.907 52.688,53.472C52.837,54.394 52.775,55.328 52.904,56.255C53.308,59.141 54.177,61.872 55.556,64.432C56.945,67.012 58.761,69.261 61.01,71.152C63.378,73.145 66.025,74.638 68.982,75.541C72.211,76.526 75.5,76.84 78.87,76.404C83.688,75.782 87.899,73.854 91.473,70.602C95.343,67.079 97.755,62.702 98.735,57.549C99.237,54.91 99.321,52.265 98.937,49.601C98.439,46.161 97.287,42.971 95.412,40.044C94.105,38.005 92.529,36.199 90.658,34.659C88.374,32.779 85.825,31.388 83.007,30.48C80.865,29.791 78.667,29.472 76.431,29.356C75.886,29.327 75.801,29.253 75.797,28.689C75.786,27.236 75.786,25.785 75.796,24.334C75.801,23.711 75.895,23.611 76.519,23.61C77.432,23.61 78.335,23.512 79.235,23.389C81.417,23.09 83.502,22.464 85.514,21.563C88.199,20.359 90.55,18.676 92.581,16.568C94.847,14.217 96.547,11.491 97.677,8.417C98.521,6.123 99.021,3.754 99.151,1.319C99.304,-1.515 98.957,-4.3 98.131,-7.021C97.134,-10.305 95.521,-13.25 93.235,-15.807C91.06,-18.243 88.5,-20.171 85.513,-21.529C82.916,-22.709 80.194,-23.377 77.361,-23.552C74.46,-23.731 71.61,-23.383 68.836,-22.487C65.698,-21.473 62.896,-19.872 60.455,-17.656C57.851,-15.291 55.857,-12.486 54.516,-9.226C53.72,-7.294 53.19,-5.294 52.903,-3.222C52.777,-2.316 52.838,-1.404 52.693,-0.504C52.593,0.121 52.55,0.189 51.92,0.193C50.36,0.202 48.8,0.203 47.24,0.192C46.563,0.187 46.421,0.061 46.427,-0.608C46.438,-1.958 46.269,-3.284 46.024,-4.608C45.595,-6.929 44.815,-9.127 43.716,-11.206C42.294,-13.897 40.423,-16.236 38.085,-18.197C35.938,-19.998 33.545,-21.376 30.901,-22.296C27.599,-23.445 24.205,-23.824 20.723,-23.454C18.11,-23.177 15.618,-22.477 13.254,-21.348C10.119,-19.85 7.462,-17.739 5.273,-15.031C2.123,-11.134 0.408,-6.67 0.041,-1.696C-0.154,0.953 0.072,3.588 0.765,6.163C2.063,10.987 4.58,15.049 8.417,18.27C10.89,20.346 13.686,21.828 16.789,22.72C18.691,23.268 20.632,23.578 22.616,23.606C23.314,23.616 23.388,23.696 23.394,24.41C23.402,25.363 23.397,26.317 23.396,27.27C23.396,27.768 23.409,28.267 23.385,28.765C23.363,29.232 23.26,29.317 22.792,29.355C22.36,29.389 21.929,29.42 21.497,29.453C18.077,29.715 14.867,30.654 11.873,32.348C8.979,33.985 6.538,36.132 4.589,38.811C1.526,43.023 0,47.751 0,52.964M49.559,66.262C49.149,66.793 48.912,67.379 48.591,67.914C47.032,70.516 45.132,72.831 42.866,74.852C40.45,77.005 37.768,78.729 34.79,79.992C32.263,81.065 29.639,81.777 26.914,82.124C24.776,82.398 22.626,82.355 20.491,82.222C18.085,82.071 15.74,81.502 13.463,80.7C10.372,79.611 7.536,78.051 4.964,76.019C0.937,72.835 -2.05,68.866 -4.035,64.132C-5.263,61.205 -5.944,58.145 -6.192,55.002C-6.332,53.237 -6.273,51.46 -6.05,49.686C-5.767,47.438 -5.292,45.245 -4.527,43.118C-3.2,39.423 -1.194,36.136 1.457,33.235C3.942,30.516 6.847,28.364 10.113,26.684C10.188,26.645 10.259,26.598 10.412,26.507C9.822,26.178 9.283,25.883 8.75,25.579C3.814,22.756 -0.03,18.864 -2.745,13.861C-4.619,10.406 -5.726,6.717 -6.114,2.812C-6.527,-1.345 -6.02,-5.397 -4.695,-9.354C-3.425,-13.147 -1.431,-16.525 1.22,-19.502C3.41,-21.963 5.957,-24.005 8.845,-25.607C12.14,-27.434 15.655,-28.564 19.388,-29.107C21.553,-29.422 23.719,-29.412 25.867,-29.256C28.041,-29.098 30.192,-28.624 32.28,-27.935C35.202,-26.97 37.928,-25.618 40.421,-23.812C43.872,-21.313 46.682,-18.229 48.811,-14.531C49.045,-14.125 49.236,-13.69 49.547,-13.304C49.815,-13.468 49.902,-13.719 50.023,-13.94C51.19,-16.08 52.603,-18.04 54.254,-19.837C56.899,-22.715 59.997,-24.965 63.529,-26.618C66.177,-27.857 68.965,-28.61 71.85,-29.078C74.053,-29.434 76.266,-29.416 78.459,-29.264C80.679,-29.109 82.875,-28.642 85.002,-27.935C88.3,-26.838 91.342,-25.253 94.077,-23.103C97.875,-20.118 100.798,-16.443 102.791,-12.032C103.968,-9.427 104.809,-6.717 105.129,-3.881C105.53,-0.335 105.452,3.199 104.621,6.705C103.556,11.197 101.535,15.196 98.611,18.747C96.964,20.747 95.058,22.474 92.943,23.974C91.774,24.803 90.548,25.533 89.271,26.179C89.117,26.256 88.947,26.308 88.833,26.46C88.825,26.664 89.01,26.686 89.132,26.747C91.334,27.846 93.36,29.207 95.219,30.818C97.595,32.878 99.61,35.244 101.226,37.943C102.919,40.773 104.12,43.802 104.79,47.035C105.094,48.5 105.316,49.979 105.321,51.479C105.326,53.058 105.381,54.638 105.212,56.217C104.894,59.194 104.117,62.045 102.915,64.779C101.882,67.131 100.566,69.318 98.941,71.311C96.337,74.506 93.237,77.098 89.569,79.01C86.579,80.568 83.419,81.572 80.091,82.063C79.278,82.183 78.463,82.293 77.635,82.279C76.855,82.266 76.075,82.272 75.295,82.283C71.731,82.338 68.331,81.558 65.037,80.26C60.813,78.595 57.188,76.055 54.122,72.714C52.475,70.918 51.081,68.938 49.927,66.789C49.836,66.621 49.786,66.424 49.559,66.262" style="fill-rule:nonzero;"/>
                </g>
                <g transform="matrix(14.6599,0,0,14.6599,2456.67,1894.11)">
                    <path d="M0,-49.295C0.021,-49.117 -0.051,-49.034 -0.125,-48.956C-0.273,-48.798 -0.427,-48.645 -0.58,-48.492C-8.3,-40.771 -16.021,-33.05 -23.74,-25.329C-24.459,-24.611 -24.484,-24.72 -23.752,-23.987L-0.545,-0.78C0.224,-0.012 0.176,-0.118 -0.551,0.613C-1.453,1.519 -2.357,2.423 -3.263,3.324C-3.77,3.829 -3.775,3.829 -4.281,3.323C-8.878,-1.271 -13.474,-5.867 -18.068,-10.462L-27.766,-20.159C-27.857,-20.251 -27.957,-20.337 -28.04,-20.436C-28.234,-20.668 -28.42,-20.691 -28.626,-20.448C-28.738,-20.317 -28.869,-20.201 -28.992,-20.079C-36.743,-12.328 -44.494,-4.576 -52.245,3.175C-52.963,3.893 -52.853,3.883 -53.586,3.152C-54.492,2.25 -55.396,1.347 -56.297,0.44C-56.82,-0.084 -56.818,-0.088 -56.28,-0.631C-55.914,-1 -55.545,-1.366 -55.177,-1.733C-47.763,-9.149 -40.349,-16.563 -32.935,-23.977C-32.199,-24.712 -32.211,-24.604 -32.925,-25.318C-40.661,-33.054 -48.397,-40.79 -56.132,-48.526C-56.85,-49.245 -56.904,-49.143 -56.125,-49.92C-55.221,-50.823 -54.32,-51.73 -53.413,-52.63C-52.917,-53.122 -52.888,-53.121 -52.38,-52.615C-51.412,-51.652 -50.45,-50.685 -49.485,-49.719C-42.653,-42.887 -35.821,-36.055 -28.987,-29.224C-28.283,-28.52 -28.4,-28.513 -27.699,-29.214C-19.962,-36.948 -12.228,-44.685 -4.492,-52.42C-3.728,-53.184 -3.82,-53.188 -3.044,-52.413C-2.14,-51.51 -1.235,-50.607 -0.333,-49.701C-0.197,-49.565 -0.042,-49.44 0,-49.295" style="fill-rule:nonzero;"/>
                </g>
                <g transform="matrix(1137.5,0,0,1137.5,2899.16,2216.34)">
                    <path d="M0.053,-0.553L0.201,-0.553L0.417,-0.118L0.422,-0.118L0.639,-0.553L0.783,-0.553L0.783,-0L0.682,-0L0.682,-0.427L0.672,-0.427L0.462,-0L0.371,-0L0.162,-0.427L0.151,-0.427L0.151,-0L0.053,-0L0.053,-0.553Z" style="fill-rule:nonzero;"/>
                </g>
                <g transform="matrix(1137.5,0,0,1137.5,3850.11,2216.34)">
                    <path d="M0.581,-0.49L0.532,-0.415C0.469,-0.456 0.396,-0.476 0.311,-0.476C0.208,-0.476 0.157,-0.451 0.157,-0.402C0.157,-0.383 0.164,-0.369 0.179,-0.361C0.194,-0.352 0.215,-0.346 0.244,-0.343L0.416,-0.323C0.539,-0.308 0.6,-0.254 0.6,-0.162C0.6,-0.103 0.575,-0.059 0.525,-0.03C0.474,-0.001 0.406,0.014 0.319,0.014C0.21,0.014 0.117,-0.014 0.039,-0.07L0.087,-0.149C0.16,-0.1 0.243,-0.075 0.334,-0.075C0.385,-0.075 0.426,-0.082 0.457,-0.097C0.487,-0.111 0.502,-0.132 0.502,-0.16C0.502,-0.199 0.473,-0.222 0.416,-0.228L0.234,-0.248C0.176,-0.255 0.132,-0.27 0.102,-0.294C0.072,-0.318 0.057,-0.354 0.057,-0.401C0.057,-0.455 0.081,-0.496 0.129,-0.524C0.176,-0.552 0.237,-0.566 0.311,-0.566C0.419,-0.566 0.509,-0.541 0.581,-0.49Z" style="fill-rule:nonzero;"/>
                </g>
                <g transform="matrix(1137.5,0,0,1137.5,516.658,2215.12)">
                    <path d="M0.053,-0.553L0.378,-0.553C0.443,-0.553 0.496,-0.533 0.539,-0.494C0.582,-0.454 0.603,-0.402 0.603,-0.339C0.603,-0.296 0.593,-0.259 0.572,-0.227C0.551,-0.194 0.523,-0.17 0.488,-0.153L0.575,-0L0.464,-0L0.394,-0.128L0.155,-0.128L0.155,-0L0.053,-0L0.053,-0.553ZM0.155,-0.46L0.155,-0.221L0.374,-0.221C0.413,-0.221 0.444,-0.232 0.467,-0.253C0.49,-0.274 0.502,-0.302 0.502,-0.339C0.502,-0.376 0.49,-0.406 0.467,-0.428C0.444,-0.449 0.413,-0.46 0.374,-0.46L0.155,-0.46Z" style="fill-rule:nonzero;"/>
                </g>
            </g>
        </g>
    </g>
</svg>
