<?xml version="1.0" encoding="UTF-8" standalone="no"?>
<!DOCTYPE svg PUBLIC "-//W3C//DTD SVG 1.1//EN" "http://www.w3.org/Graphics/SVG/1.1/DTD/svg11.dtd">
<svg width="100%" height="100%" viewBox="0 0 101 100" version="1.1" xmlns="http://www.w3.org/2000/svg" xmlns:xlink="http://www.w3.org/1999/xlink" xml:space="preserve" xmlns:serif="http://www.serif.com/" style="fill-rule:evenodd;clip-rule:evenodd;stroke-linejoin:round;stroke-miterlimit:2;">
    <g transform="matrix(1,0,0,1,-416,0)">
        <g id="Монтажная-область1" serif:id="Монтажная область1" transform="matrix(1,0,0,1,416.607,0)">
            <rect x="0" y="0" width="100" height="100" style="fill:rgb(230,230,230);"/>
            <g transform="matrix(0.175024,0,0,0.175024,-23.6753,-2.43929)">
                <g>
                    <path d="M454.761,261.417L454.761,198.771C454.761,197.13 454.175,195.505 453.108,194.19C449.318,189.513 440.055,178.085 436.549,173.759C435.661,172.664 434.431,171.898 433.082,171.599L433.081,171.599C432.088,171.379 431.07,171.447 430.149,171.794C424.252,174.02 401.438,182.631 392.013,186.188C389.515,187.131 387.904,189.501 387.904,192.23L387.904,254.927C387.904,256.569 388.49,258.193 389.556,259.509C393.409,264.262 402.914,275.99 406.284,280.146C407.063,281.108 408.143,281.781 409.328,282.043C409.891,282.168 410.467,282.132 410.991,281.941L450.586,267.484C453.119,266.559 454.761,264.173 454.761,261.417ZM416.44,239.745L411.02,227.161C411.02,227.161 438.232,217.39 446.681,214.186C448.332,213.56 449.396,211.993 449.396,210.187L449.396,198.429C449.396,198.066 449.266,197.706 449.03,197.415L432.471,176.985C432.407,176.904 432.41,176.911 432.348,176.833L394.178,191.235C393.625,191.443 393.269,191.968 393.269,192.572L393.269,255.269C393.269,255.632 393.398,255.992 393.634,256.283L409.995,276.468L448.472,262.418C449.033,262.214 449.396,261.685 449.396,261.075L449.396,226.035C449.396,224.491 448.616,223.003 447.322,222.079C446.029,221.154 444.014,220.518 441.2,221.585L419.466,229.826C416.2,231.059 415.033,235.947 416.44,239.745Z" style="fill:white;"/>
                    <path d="M549.323,421.705L690.002,421.705C690.98,421.705 691.774,420.911 691.774,419.934C691.774,418.956 690.98,418.162 690.002,418.162L549.323,418.162C548.345,418.162 547.551,418.956 547.551,419.934C547.551,420.911 548.345,421.705 549.323,421.705Z" style="fill:white;"/>
                    <path d="M152.663,421.705L293.342,421.705C294.319,421.705 295.113,420.911 295.113,419.934C295.113,418.956 294.319,418.162 293.342,418.162L152.663,418.162C151.685,418.162 150.891,418.956 150.891,419.934C150.891,420.911 151.685,421.705 152.663,421.705Z" style="fill:white;"/>
                    <path d="M309.955,427.56C309.672,427.56 309.433,427.463 309.24,427.27C309.047,427.077 308.95,426.839 308.95,426.555L308.95,413.476C308.95,413.18 309.047,412.939 309.24,412.752C309.433,412.565 309.672,412.472 309.955,412.472C310.251,412.472 310.493,412.565 310.679,412.752C310.866,412.939 310.959,413.18 310.959,413.476L310.959,426.555C310.959,426.839 310.866,427.077 310.679,427.27C310.493,427.463 310.251,427.56 309.955,427.56Z" style="fill:white;fill-rule:nonzero;"/>
                    <path d="M315.306,427.56C315.023,427.56 314.788,427.463 314.601,427.27C314.414,427.077 314.321,426.839 314.321,426.555L314.321,413.476C314.321,413.18 314.414,412.939 314.601,412.752C314.788,412.565 315.023,412.472 315.306,412.472C315.615,412.472 315.873,412.594 316.079,412.839L324.502,424.044L324.502,413.476C324.502,413.18 324.599,412.939 324.792,412.752C324.985,412.565 325.223,412.472 325.507,412.472C325.803,412.472 326.041,412.565 326.221,412.752C326.402,412.939 326.492,413.18 326.492,413.476L326.492,426.555C326.492,426.839 326.402,427.077 326.221,427.27C326.041,427.463 325.803,427.56 325.507,427.56C325.378,427.56 325.239,427.531 325.091,427.473C324.943,427.415 324.824,427.328 324.734,427.212L316.311,416.007L316.311,426.555C316.311,426.839 316.217,427.077 316.031,427.27C315.844,427.463 315.602,427.56 315.306,427.56Z" style="fill:white;fill-rule:nonzero;"/>
                    <path d="M335.05,427.753C334.226,427.753 333.44,427.624 332.693,427.367C331.946,427.109 331.296,426.748 330.742,426.285C330.188,425.821 329.783,425.287 329.525,424.681C329.396,424.411 329.399,424.16 329.535,423.928C329.67,423.696 329.898,423.548 330.22,423.483C330.452,423.432 330.681,423.467 330.906,423.59C331.132,423.712 331.302,423.896 331.418,424.14C331.573,424.462 331.827,424.759 332.181,425.029C332.535,425.299 332.964,425.518 333.466,425.686C333.968,425.853 334.496,425.937 335.05,425.937C335.668,425.937 336.238,425.84 336.76,425.647C337.282,425.454 337.703,425.174 338.025,424.807C338.347,424.44 338.508,423.986 338.508,423.445C338.508,422.762 338.241,422.15 337.707,421.61C337.172,421.069 336.293,420.734 335.069,420.605C333.472,420.45 332.217,419.98 331.302,419.195C330.388,418.409 329.931,417.437 329.931,416.277C329.931,415.427 330.169,414.706 330.645,414.114C331.122,413.521 331.769,413.071 332.587,412.761C333.405,412.452 334.316,412.298 335.321,412.298C336.106,412.298 336.792,412.407 337.378,412.626C337.964,412.845 338.476,413.148 338.914,413.534C339.352,413.921 339.732,414.378 340.054,414.906C340.234,415.189 340.308,415.456 340.276,415.708C340.244,415.959 340.118,416.155 339.899,416.297C339.655,416.451 339.39,416.484 339.107,416.393C338.824,416.303 338.611,416.136 338.47,415.891C338.264,415.518 338.012,415.202 337.716,414.944C337.42,414.687 337.072,414.484 336.673,414.336C336.274,414.188 335.804,414.114 335.263,414.114C334.31,414.101 333.511,414.278 332.867,414.645C332.223,415.012 331.901,415.576 331.901,416.335C331.901,416.722 332.001,417.092 332.201,417.446C332.4,417.8 332.767,418.106 333.302,418.364C333.836,418.622 334.606,418.802 335.61,418.905C337.143,419.059 338.338,419.526 339.194,420.305C340.051,421.085 340.479,422.112 340.479,423.387C340.479,424.121 340.327,424.759 340.025,425.299C339.722,425.84 339.316,426.294 338.808,426.661C338.299,427.028 337.719,427.302 337.069,427.482C336.419,427.663 335.746,427.753 335.05,427.753Z" style="fill:white;fill-rule:nonzero;"/>
                    <path d="M344.053,427.56C343.769,427.56 343.531,427.463 343.338,427.27C343.145,427.077 343.048,426.839 343.048,426.555L343.048,413.476C343.048,413.18 343.145,412.939 343.338,412.752C343.531,412.565 343.769,412.472 344.053,412.472L347.917,412.472C348.883,412.472 349.739,412.684 350.486,413.109C351.233,413.534 351.816,414.123 352.234,414.877C352.653,415.63 352.862,416.496 352.862,417.475C352.862,418.415 352.653,419.253 352.234,419.987C351.816,420.721 351.233,421.294 350.486,421.706C349.739,422.118 348.883,422.324 347.917,422.324L345.057,422.324L345.057,426.555C345.057,426.839 344.964,427.077 344.777,427.27C344.59,427.463 344.349,427.56 344.053,427.56ZM345.057,420.47L347.917,420.47C348.509,420.47 349.031,420.341 349.481,420.083C349.932,419.826 350.286,419.472 350.544,419.021C350.802,418.57 350.93,418.055 350.93,417.475C350.93,416.857 350.802,416.313 350.544,415.843C350.286,415.373 349.932,415.002 349.481,414.732C349.031,414.462 348.509,414.326 347.917,414.326L345.057,414.326L345.057,420.47Z" style="fill:white;fill-rule:nonzero;"/>
                    <path d="M355.876,427.56C355.593,427.56 355.354,427.463 355.161,427.27C354.968,427.077 354.871,426.839 354.871,426.555L354.871,413.476C354.871,413.18 354.968,412.939 355.161,412.752C355.354,412.565 355.593,412.472 355.876,412.472C356.172,412.472 356.414,412.565 356.6,412.752C356.787,412.939 356.881,413.18 356.881,413.476L356.881,426.555C356.881,426.839 356.787,427.077 356.6,427.27C356.414,427.463 356.172,427.56 355.876,427.56Z" style="fill:white;fill-rule:nonzero;"/>
                    <path d="M365.08,421.736C364.963,421.742 364.844,421.745 364.724,421.745L362.251,421.745L362.251,426.555C362.251,426.839 362.158,427.077 361.971,427.27C361.784,427.463 361.543,427.56 361.247,427.56C360.963,427.56 360.725,427.463 360.532,427.27C360.339,427.077 360.242,426.839 360.242,426.555L360.242,413.476C360.242,413.18 360.339,412.939 360.532,412.752C360.725,412.565 360.963,412.472 361.247,412.472L364.724,412.472C365.69,412.472 366.546,412.675 367.293,413.08C368.04,413.486 368.623,414.043 369.042,414.751C369.46,415.46 369.67,416.284 369.67,417.224C369.67,418.1 369.46,418.879 369.042,419.562C368.623,420.244 368.04,420.779 367.293,421.165C367.226,421.2 367.157,421.234 367.087,421.266L370.037,426.014C370.269,426.388 370.301,426.739 370.133,427.067C369.966,427.396 369.676,427.56 369.264,427.56C369.084,427.56 368.919,427.521 368.771,427.444C368.623,427.367 368.498,427.244 368.395,427.077L365.08,421.736ZM362.251,419.89L364.724,419.89C365.316,419.89 365.838,419.777 366.289,419.552C366.74,419.327 367.094,419.011 367.351,418.605C367.609,418.2 367.738,417.739 367.738,417.224C367.738,416.657 367.609,416.155 367.351,415.717C367.094,415.279 366.74,414.938 366.289,414.693C365.838,414.449 365.316,414.326 364.724,414.326L362.251,414.326L362.251,419.89Z" style="fill:white;fill-rule:nonzero;"/>
                    <path d="M373.186,427.56C372.902,427.56 372.664,427.463 372.471,427.27C372.278,427.077 372.181,426.839 372.181,426.555L372.181,413.476C372.181,413.18 372.278,412.939 372.471,412.752C372.664,412.565 372.902,412.472 373.186,412.472L381.918,412.472C382.214,412.472 382.452,412.559 382.633,412.732C382.813,412.906 382.903,413.135 382.903,413.418C382.903,413.689 382.813,413.908 382.633,414.075C382.452,414.243 382.214,414.326 381.918,414.326L374.19,414.326L374.19,419.021L379.735,419.021C380.031,419.021 380.269,419.108 380.45,419.282C380.63,419.455 380.72,419.678 380.72,419.948C380.72,420.219 380.63,420.441 380.45,420.615C380.269,420.788 380.031,420.875 379.735,420.875L374.19,420.875L374.19,425.705L381.918,425.705C382.214,425.705 382.452,425.789 382.633,425.956C382.813,426.124 382.903,426.343 382.903,426.613C382.903,426.896 382.813,427.125 382.633,427.299C382.452,427.473 382.214,427.56 381.918,427.56L373.186,427.56Z" style="fill:white;fill-rule:nonzero;"/>
                    <path d="M386.554,427.56C386.271,427.56 386.033,427.463 385.84,427.27C385.646,427.077 385.55,426.839 385.55,426.555L385.55,413.476C385.55,413.18 385.646,412.939 385.84,412.752C386.033,412.565 386.271,412.472 386.554,412.472L390.051,412.472C391.159,412.472 392.167,412.655 393.075,413.022C393.983,413.389 394.771,413.911 395.441,414.587C396.111,415.263 396.626,416.059 396.987,416.973C397.347,417.887 397.528,418.898 397.528,420.006C397.528,421.114 397.347,422.128 396.987,423.049C396.626,423.97 396.111,424.768 395.441,425.444C394.771,426.12 393.983,426.642 393.075,427.009C392.167,427.376 391.159,427.56 390.051,427.56L386.554,427.56ZM387.559,425.782L390.051,425.782C391.133,425.782 392.089,425.534 392.92,425.039C393.751,424.543 394.404,423.86 394.881,422.991C395.357,422.121 395.596,421.127 395.596,420.006C395.596,418.873 395.357,417.875 394.881,417.012C394.404,416.149 393.751,415.473 392.92,414.983C392.089,414.494 391.133,414.249 390.051,414.249L387.559,414.249L387.559,425.782Z" style="fill:white;fill-rule:nonzero;"/>
                    <path d="M407.09,427.56C406.807,427.56 406.569,427.463 406.376,427.27C406.182,427.077 406.086,426.839 406.086,426.555L406.086,413.476C406.086,413.18 406.182,412.939 406.376,412.752C406.569,412.565 406.807,412.472 407.09,412.472L411.708,412.472C412.583,412.472 413.353,412.642 414.016,412.984C414.68,413.325 415.201,413.798 415.581,414.404C415.961,415.009 416.151,415.704 416.151,416.49C416.151,417.121 415.98,417.691 415.639,418.2C415.298,418.708 414.831,419.111 414.238,419.407C415.088,419.613 415.771,420.019 416.286,420.624C416.801,421.23 417.059,422.022 417.059,423C417.059,423.889 416.85,424.675 416.431,425.357C416.013,426.04 415.43,426.578 414.683,426.971C413.936,427.363 413.079,427.56 412.113,427.56L407.09,427.56ZM408.095,425.705L412.113,425.705C412.706,425.705 413.227,425.602 413.678,425.396C414.129,425.19 414.483,424.887 414.741,424.488C414.998,424.089 415.127,423.593 415.127,423C415.127,422.447 414.998,421.989 414.741,421.629C414.483,421.268 414.129,420.995 413.678,420.808C413.227,420.621 412.706,420.528 412.113,420.528L408.095,420.528L408.095,425.705ZM408.095,418.673L411.708,418.673C412.442,418.673 413.044,418.493 413.514,418.132C413.984,417.771 414.219,417.224 414.219,416.49C414.219,415.756 413.984,415.212 413.514,414.858C413.044,414.503 412.442,414.326 411.708,414.326L408.095,414.326L408.095,418.673Z" style="fill:white;fill-rule:nonzero;"/>
                    <path d="M423.126,420.206L427.723,412.955C427.826,412.8 427.948,412.681 428.09,412.597C428.232,412.514 428.406,412.472 428.612,412.472C428.844,412.472 429.037,412.552 429.191,412.713C429.346,412.874 429.436,413.074 429.462,413.312C429.488,413.55 429.423,413.792 429.269,414.037L424.072,422.054L424.072,426.555C424.072,426.839 423.975,427.077 423.782,427.27C423.589,427.463 423.351,427.56 423.067,427.56C422.797,427.56 422.565,427.463 422.372,427.27C422.179,427.077 422.082,426.839 422.082,426.555L422.082,422.054L416.924,414.037C416.756,413.766 416.692,413.512 416.731,413.273C416.769,413.035 416.882,412.842 417.069,412.694C417.255,412.546 417.471,412.472 417.716,412.472C417.935,412.472 418.109,412.52 418.237,412.617C418.366,412.713 418.489,412.852 418.605,413.032L423.126,420.206Z" style="fill:white;fill-rule:nonzero;"/>
                    <path d="M437.73,427.56C437.447,427.56 437.209,427.463 437.015,427.27C436.822,427.077 436.726,426.839 436.726,426.555L436.726,413.476C436.726,413.18 436.822,412.939 437.015,412.752C437.209,412.565 437.447,412.472 437.73,412.472L446.462,412.472C446.759,412.472 446.997,412.559 447.177,412.732C447.358,412.906 447.448,413.135 447.448,413.418C447.448,413.689 447.358,413.908 447.177,414.075C446.997,414.243 446.759,414.326 446.462,414.326L438.735,414.326L438.735,419.021L444.279,419.021C444.576,419.021 444.814,419.108 444.994,419.282C445.174,419.455 445.265,419.678 445.265,419.948C445.265,420.219 445.174,420.441 444.994,420.615C444.814,420.788 444.576,420.875 444.279,420.875L438.735,420.875L438.735,425.705L446.462,425.705C446.759,425.705 446.997,425.789 447.177,425.956C447.358,426.124 447.448,426.343 447.448,426.613C447.448,426.896 447.358,427.125 447.177,427.299C446.997,427.473 446.759,427.56 446.462,427.56L437.73,427.56Z" style="fill:white;fill-rule:nonzero;"/>
                    <path d="M453.552,414.326L449.38,414.326C449.109,414.326 448.887,414.239 448.713,414.065C448.539,413.892 448.452,413.669 448.452,413.399C448.452,413.129 448.539,412.906 448.713,412.732C448.887,412.559 449.109,412.472 449.38,412.472L459.715,412.472C459.986,412.472 460.208,412.559 460.382,412.732C460.556,412.906 460.643,413.129 460.643,413.399C460.643,413.669 460.556,413.892 460.382,414.065C460.208,414.239 459.986,414.326 459.715,414.326L455.562,414.326L455.562,426.555C455.562,426.839 455.465,427.077 455.272,427.27C455.079,427.463 454.84,427.56 454.557,427.56C454.274,427.56 454.035,427.463 453.842,427.27C453.649,427.077 453.552,426.839 453.552,426.555L453.552,414.326Z" style="fill:white;fill-rule:nonzero;"/>
                    <path d="M463.753,427.56C463.47,427.56 463.231,427.463 463.038,427.27C462.845,427.077 462.748,426.839 462.748,426.555L462.748,413.476C462.748,413.18 462.845,412.939 463.038,412.752C463.231,412.565 463.47,412.472 463.753,412.472L472.485,412.472C472.781,412.472 473.02,412.559 473.2,412.732C473.38,412.906 473.47,413.135 473.47,413.418C473.47,413.689 473.38,413.908 473.2,414.075C473.02,414.243 472.781,414.326 472.485,414.326L464.757,414.326L464.757,419.021L470.302,419.021C470.598,419.021 470.836,419.108 471.017,419.282C471.197,419.455 471.287,419.678 471.287,419.948C471.287,420.219 471.197,420.441 471.017,420.615C470.836,420.788 470.598,420.875 470.302,420.875L464.757,420.875L464.757,425.705L472.485,425.705C472.781,425.705 473.02,425.789 473.2,425.956C473.38,426.124 473.47,426.343 473.47,426.613C473.47,426.896 473.38,427.125 473.2,427.299C473.02,427.473 472.781,427.56 472.485,427.56L463.753,427.56Z" style="fill:white;fill-rule:nonzero;"/>
                    <path d="M480.954,421.736C480.838,421.742 480.719,421.745 480.599,421.745L478.126,421.745L478.126,426.555C478.126,426.839 478.033,427.077 477.846,427.27C477.659,427.463 477.418,427.56 477.122,427.56C476.838,427.56 476.6,427.463 476.407,427.27C476.214,427.077 476.117,426.839 476.117,426.555L476.117,413.476C476.117,413.18 476.214,412.939 476.407,412.752C476.6,412.565 476.838,412.472 477.122,412.472L480.599,412.472C481.565,412.472 482.421,412.675 483.168,413.08C483.915,413.486 484.498,414.043 484.917,414.751C485.335,415.46 485.545,416.284 485.545,417.224C485.545,418.1 485.335,418.879 484.917,419.562C484.498,420.244 483.915,420.779 483.168,421.165C483.1,421.2 483.032,421.234 482.962,421.266L485.912,426.014C486.144,426.388 486.176,426.739 486.008,427.067C485.841,427.396 485.551,427.56 485.139,427.56C484.959,427.56 484.794,427.521 484.646,427.444C484.498,427.367 484.373,427.244 484.27,427.077L480.954,421.736ZM478.126,419.89L480.599,419.89C481.191,419.89 481.713,419.777 482.164,419.552C482.615,419.327 482.969,419.011 483.226,418.605C483.484,418.2 483.613,417.739 483.613,417.224C483.613,416.657 483.484,416.155 483.226,415.717C482.969,415.279 482.615,414.938 482.164,414.693C481.713,414.449 481.191,414.326 480.599,414.326L478.126,414.326L478.126,419.89Z" style="fill:white;fill-rule:nonzero;"/>
                    <path d="M489.041,427.56C488.758,427.56 488.523,427.463 488.336,427.27C488.149,427.077 488.056,426.839 488.056,426.555L488.056,413.476C488.056,413.18 488.149,412.939 488.336,412.752C488.523,412.565 488.758,412.472 489.041,412.472C489.35,412.472 489.608,412.594 489.814,412.839L498.237,424.044L498.237,413.476C498.237,413.18 498.334,412.939 498.527,412.752C498.72,412.565 498.958,412.472 499.242,412.472C499.538,412.472 499.776,412.565 499.957,412.752C500.137,412.939 500.227,413.18 500.227,413.476L500.227,426.555C500.227,426.839 500.137,427.077 499.957,427.27C499.776,427.463 499.538,427.56 499.242,427.56C499.113,427.56 498.974,427.531 498.826,427.473C498.678,427.415 498.559,427.328 498.469,427.212L490.046,416.007L490.046,426.555C490.046,426.839 489.953,427.077 489.766,427.27C489.579,427.463 489.338,427.56 489.041,427.56Z" style="fill:white;fill-rule:nonzero;"/>
                    <path d="M504.999,427.56C504.715,427.56 504.477,427.463 504.284,427.27C504.091,427.077 503.994,426.839 503.994,426.555L503.994,413.476C503.994,413.18 504.091,412.939 504.284,412.752C504.477,412.565 504.715,412.472 504.999,412.472C505.295,412.472 505.536,412.565 505.723,412.752C505.91,412.939 506.003,413.18 506.003,413.476L506.003,426.555C506.003,426.839 505.91,427.077 505.723,427.27C505.536,427.463 505.295,427.56 504.999,427.56Z" style="fill:white;fill-rule:nonzero;"/>
                    <path d="M512.823,414.326L508.65,414.326C508.38,414.326 508.157,414.239 507.984,414.065C507.81,413.892 507.723,413.669 507.723,413.399C507.723,413.129 507.81,412.906 507.984,412.732C508.157,412.559 508.38,412.472 508.65,412.472L518.986,412.472C519.255,412.472 519.478,412.559 519.651,412.732C519.826,412.906 519.913,413.129 519.913,413.399C519.913,413.669 519.826,413.892 519.651,414.065C519.478,414.239 519.255,414.326 518.986,414.326L514.831,414.326L514.831,426.555C514.831,426.839 514.736,427.077 514.542,427.27C514.349,427.463 514.111,427.56 513.828,427.56C513.544,427.56 513.306,427.463 513.112,427.27C512.919,427.077 512.823,426.839 512.823,426.555L512.823,414.326Z" style="fill:white;fill-rule:nonzero;"/>
                    <path d="M526.598,420.206L531.195,412.955C531.298,412.8 531.421,412.681 531.562,412.597C531.704,412.514 531.878,412.472 532.084,412.472C532.316,412.472 532.509,412.552 532.663,412.713C532.818,412.874 532.908,413.074 532.934,413.312C532.96,413.55 532.895,413.792 532.741,414.037L527.544,422.054L527.544,426.555C527.544,426.839 527.447,427.077 527.254,427.27C527.061,427.463 526.823,427.56 526.539,427.56C526.269,427.56 526.037,427.463 525.844,427.27C525.651,427.077 525.554,426.839 525.554,426.555L525.554,422.054L520.396,414.037C520.229,413.766 520.164,413.512 520.203,413.273C520.241,413.035 520.354,412.842 520.541,412.694C520.728,412.546 520.943,412.472 521.188,412.472C521.406,412.472 521.581,412.52 521.71,412.617C521.838,412.713 521.961,412.852 522.077,413.032L526.598,420.206Z" style="fill:white;fill-rule:nonzero;"/>
                    <path d="M692.337,251.853L692.337,376.275L685.833,376.275L685.833,257.531C685.833,254.407 682.027,252.037 678.606,251.853L692.337,251.853Z" style="fill:white;"/>
                    <path d="M258.867,357.89C264.2,367.912 276.246,372.743 287.217,368.75C291.107,367.334 294.388,364.981 296.897,362.039L304.625,362.039C301.273,367.69 296.024,372.26 289.375,374.68C274.094,380.242 257.173,372.351 251.611,357.07C246.049,341.79 253.94,324.868 269.221,319.306C284.502,313.745 301.423,321.635 306.985,336.916C307.372,337.981 307.915,339.97 307.915,339.97L258.867,357.89ZM299.729,336.097L256.642,351.778C254.285,340.673 260.409,329.229 271.379,325.236C282.35,321.244 294.396,326.074 299.729,336.097Z" style="fill:white;"/>
                    <path d="M326.33,357.89C331.663,367.912 343.709,372.743 354.68,368.75C358.57,367.334 361.851,364.981 364.36,362.039L372.088,362.039C368.737,367.69 363.487,372.26 356.838,374.68C341.557,380.242 324.636,372.351 319.074,357.07C313.512,341.79 321.403,324.868 336.684,319.306C351.965,313.745 368.886,321.635 374.448,336.916C374.835,337.981 375.368,339.932 375.368,339.932L326.33,357.89ZM367.192,336.097L324.105,351.778C321.749,340.673 327.872,329.229 338.842,325.236C349.813,321.244 361.859,326.074 367.192,336.097Z" style="fill:white;"/>
                    <path d="M624.448,357.89C629.781,367.912 641.828,372.743 652.798,368.75C656.689,367.334 659.969,364.981 662.478,362.039L670.206,362.039C666.855,367.69 661.605,372.26 654.956,374.68C639.676,380.242 622.754,372.351 617.192,357.07C611.63,341.79 619.521,324.868 634.802,319.306C650.083,313.745 667.004,321.635 672.566,336.916C672.918,337.883 673.216,338.857 673.462,339.835C673.487,339.931 673.511,340.033 673.511,340.033L624.448,357.89ZM665.31,336.097L622.224,351.778C619.867,340.673 625.99,329.229 636.96,325.236C647.931,321.244 659.977,326.074 665.31,336.097Z" style="fill:white;"/>
                    <path d="M395.069,325.736L418.06,317.368C434.189,317.368 447.308,330.355 447.522,346.431L447.524,346.431L447.524,376.279L441.21,376.279L441.21,346.431C441.004,334.352 431.53,324.514 419.6,323.729L395.069,332.658L395.069,376.279L388.565,376.279L388.565,317.368L395.069,317.368L395.069,325.736Z" style="fill:white;"/>
                    <path d="M204.518,375.963L149.553,376.209C153.105,376.018 156.881,372.916 156.881,370.164L156.881,257.903C156.881,254.346 153.105,252.049 149.553,251.858C149.553,251.858 190.494,251.915 191.462,251.915C205.093,251.915 215.669,258.968 220.139,271.25C224.609,283.531 220.393,296.872 210.63,304.524L210.63,304.539C227.576,307.447 240.49,322.223 240.49,339.992C240.49,359.845 224.371,375.963 204.518,375.963ZM163.383,369.712L204.518,369.935C221.044,369.935 234.461,356.518 234.461,339.992C234.461,323.466 221.044,310.049 204.518,310.049C202.459,310.049 200.448,310.257 198.504,310.654L163.381,323.438L163.383,369.712ZM163.381,316.516L163.381,258.362L191.412,258.362C196.721,258.362 200.971,259.46 204.296,261.436C208.727,264.07 212.31,268.191 214.209,273.408C218.446,285.047 212.75,297.898 201.46,302.656L163.381,316.516Z" style="fill:white;"/>
                    <path d="M500.456,345.533L466.504,357.89C471.837,367.912 483.884,372.743 494.854,368.75C499.222,367.16 502.822,364.389 505.424,360.929C508.353,357.051 510.091,352.224 510.091,346.993L510.091,346.683C510.08,345.884 510.028,345.082 509.933,344.278L509.928,344.238C509.568,341.21 508.624,338.362 507.21,335.809C501.802,325.982 489.882,321.282 479.017,325.236C475.126,326.653 471.845,329.006 469.337,331.947L461.609,331.947C464.96,326.297 470.21,321.726 476.858,319.306C492.139,313.745 509.061,321.635 514.622,336.916C515.843,340.27 516.416,343.703 516.405,347.077L516.405,376.275L509.9,376.275L509.9,365.451C506.641,369.517 502.263,372.769 497.013,374.68C481.732,380.242 464.81,372.351 459.249,357.07C458.862,356.007 458.54,354.935 458.281,353.86L464.262,351.693L490.442,342.256C494.199,341.126 498.181,342.518 500.456,345.533Z" style="fill:white;"/>
                    <path d="M583.456,317.372C594.304,317.375 603.111,326.184 603.111,337.033C603.111,337.564 603.11,376.241 603.11,376.241L596.605,376.241C596.605,376.241 596.699,337.987 596.699,337.033C596.699,330.141 591.425,324.471 584.696,323.842L568.922,329.583C569.864,331.882 570.384,334.397 570.384,337.033C570.384,337.266 570.383,376.241 570.383,376.241L563.879,376.241C563.879,376.241 563.972,337.266 563.972,337.033C563.972,330.14 558.696,324.469 551.966,323.842L537.631,329.059L537.631,376.241L531.127,376.241L531.127,317.372L537.631,317.372L537.631,322.137L550.723,317.372L550.725,317.372C556.552,317.373 561.79,319.913 565.392,323.947L583.45,317.374L583.45,317.372L583.456,317.372Z" style="fill:white;"/>
                </g>
            </g>
        </g>
    </g>
</svg>
