<?xml version="1.0" encoding="UTF-8" standalone="no"?>
<!DOCTYPE svg PUBLIC "-//W3C//DTD SVG 1.1//EN" "http://www.w3.org/Graphics/SVG/1.1/DTD/svg11.dtd">
<svg width="100%" height="100%" viewBox="0 0 101 100" version="1.1" xmlns="http://www.w3.org/2000/svg" xmlns:xlink="http://www.w3.org/1999/xlink" xml:space="preserve" xmlns:serif="http://www.serif.com/" style="fill-rule:evenodd;clip-rule:evenodd;stroke-linejoin:round;stroke-miterlimit:2;">
    <g transform="matrix(1,0,0,1,-277,0)">
        <g id="Lawyer-PRO" serif:id="Lawyer PRO" transform="matrix(1,0,0,1,277.154,0)">
            <rect x="0" y="0" width="100" height="100" style="fill:none;"/>
            <g transform="matrix(0.0891334,0,0,0.0891334,-354.49,-60.2441)">
                <g transform="matrix(1,0,0,1,-940.974,0)">
                    <g>
                        <g transform="matrix(1,0,0,0.992047,-5.19712,6.54929)">
                            <path d="M5342.86,871.08C5342.86,858.45 5337.89,846.337 5329.03,837.406C5320.17,828.475 5308.15,823.457 5295.62,823.457C5273.41,823.457 5246.99,823.457 5224.78,823.457C5212.25,823.457 5200.23,828.475 5191.37,837.406C5182.51,846.337 5177.53,858.45 5177.53,871.08C5177.53,1017.89 5177.53,1462.42 5177.53,1609.24C5177.53,1621.87 5182.51,1633.98 5191.37,1642.91C5200.23,1651.84 5212.25,1656.86 5224.78,1656.86C5246.99,1656.86 5273.41,1656.86 5295.62,1656.86C5308.15,1656.86 5320.17,1651.84 5329.03,1642.91C5337.89,1633.98 5342.86,1621.87 5342.86,1609.24C5342.86,1462.42 5342.86,1017.89 5342.86,871.08Z"/>
                        </g>
                        <g transform="matrix(1,0,0,0.198409,183.755,1321.49)">
                            <path d="M5342.86,1061.57C5342.86,930.065 5321.71,823.457 5295.62,823.457C5273.41,823.457 5246.99,823.457 5224.78,823.457C5198.69,823.457 5177.53,930.065 5177.53,1061.57L5177.53,1418.8C5177.53,1550.28 5198.68,1656.86 5224.77,1656.86C5224.77,1656.86 5224.77,1656.86 5224.77,1656.86C5256.09,1656.86 5286.13,1594.15 5308.27,1482.52C5330.42,1370.89 5342.86,1219.5 5342.86,1061.63C5342.86,1061.61 5342.86,1061.59 5342.86,1061.57Z"/>
                        </g>
                    </g>
                    <g>
                        <g transform="matrix(1,0,0,0.765293,183.755,193.271)">
                            <path d="M5342.86,885.191C5342.86,851.096 5321.71,823.457 5295.62,823.457C5273.41,823.457 5246.99,823.457 5224.78,823.457C5198.69,823.457 5177.53,851.096 5177.53,885.191C5177.53,1039.52 5177.53,1440.79 5177.53,1595.12C5177.53,1629.22 5198.69,1656.86 5224.78,1656.86C5246.99,1656.86 5273.41,1656.86 5295.62,1656.86C5321.71,1656.86 5342.86,1629.22 5342.86,1595.12C5342.86,1440.79 5342.86,1039.52 5342.86,885.191Z"/>
                        </g>
                        <g transform="matrix(1.42566,0,0,0.282823,-1831.56,590.565)">
                            <path d="M5342.86,1241.07C5342.86,1010.43 5305.77,823.458 5260.02,823.457C5242.51,823.457 5225.02,823.457 5210.67,823.457C5192.37,823.457 5177.53,898.246 5177.53,990.502C5177.53,1135.61 5177.53,1344.7 5177.53,1489.81C5177.53,1582.07 5192.37,1656.86 5210.67,1656.86C5239.46,1656.86 5280.94,1656.86 5309.73,1656.86C5328.03,1656.86 5342.86,1582.07 5342.86,1489.81L5342.86,1241.07Z"/>
                        </g>
                    </g>
                </g>
                <g transform="matrix(1,0,0,1,-940.974,-22.8259)">
                    <g transform="matrix(1.28154,0,0,1.28154,5559.39,1238.65)">
                        <path d="M0,-37.528L0,-20.063L3.536,-20.063C5.027,-20.063 6.182,-20.28 7,-20.713C7.818,-21.146 8.419,-21.747 8.805,-22.517C9.189,-23.238 9.418,-24.128 9.49,-25.187C9.562,-26.245 9.598,-27.424 9.598,-28.723C9.598,-29.925 9.574,-31.069 9.526,-32.152C9.478,-33.234 9.261,-34.183 8.876,-35.002C8.491,-35.82 7.914,-36.445 7.145,-36.879C6.375,-37.311 5.268,-37.528 3.825,-37.528L0,-37.528ZM-7.361,6.928L-7.361,-44.456L3.681,-44.456C5.701,-44.456 7.48,-44.191 9.021,-43.662C10.56,-43.132 11.955,-42.194 13.207,-40.848C14.457,-39.5 15.323,-37.925 15.805,-36.121C16.285,-34.317 16.526,-31.874 16.526,-28.796C16.526,-26.486 16.394,-24.538 16.129,-22.95C15.865,-21.362 15.3,-19.87 14.434,-18.476C13.423,-16.791 12.076,-15.481 10.392,-14.542C8.708,-13.604 6.495,-13.135 3.753,-13.135L0,-13.135L0,6.928L-7.361,6.928Z" style="fill-rule:nonzero;"/>
                    </g>
                    <g transform="matrix(1.28154,0,0,1.28154,5597.03,1238.65)">
                        <path d="M0,-37.528L0,-21.507L4.186,-21.507C5.485,-21.507 6.519,-21.687 7.289,-22.048C8.058,-22.409 8.66,-22.925 9.093,-23.599C9.478,-24.273 9.743,-25.103 9.887,-26.089C10.031,-27.075 10.104,-28.218 10.104,-29.517C10.104,-30.816 10.031,-31.959 9.887,-32.945C9.743,-33.931 9.454,-34.785 9.021,-35.507C8.106,-36.854 6.375,-37.528 3.825,-37.528L0,-37.528ZM-7.361,6.928L-7.361,-44.456L4.475,-44.456C13.135,-44.456 17.465,-39.428 17.465,-29.373C17.465,-26.342 16.996,-23.767 16.057,-21.651C15.119,-19.533 13.471,-17.826 11.114,-16.527L19.052,6.928L11.258,6.928L4.402,-15.011L0,-15.011L0,6.928L-7.361,6.928Z" style="fill-rule:nonzero;"/>
                    </g>
                    <g transform="matrix(1.28154,0,0,1.28154,5635.88,1197.21)">
                        <path d="M0,27.135C0,28.915 0.493,30.227 1.479,31.068C2.465,31.91 3.632,32.331 4.979,32.331C6.326,32.331 7.493,31.91 8.48,31.068C9.465,30.227 9.959,28.915 9.959,27.135L9.959,0C9.959,-1.78 9.465,-3.091 8.48,-3.933C7.493,-4.775 6.326,-5.197 4.979,-5.197C3.632,-5.197 2.465,-4.775 1.479,-3.933C0.493,-3.091 0,-1.78 0,0L0,27.135ZM-7.361,0C-7.361,-2.069 -7,-3.897 -6.278,-5.485C-5.557,-7.073 -4.595,-8.395 -3.392,-9.454C-2.237,-10.465 -0.927,-11.234 0.542,-11.764C2.008,-12.293 3.488,-12.557 4.979,-12.557C6.47,-12.557 7.95,-12.293 9.418,-11.764C10.885,-11.234 12.22,-10.465 13.423,-9.454C14.578,-8.395 15.516,-7.073 16.238,-5.485C16.959,-3.897 17.32,-2.069 17.32,0L17.32,27.135C17.32,29.3 16.959,31.153 16.238,32.692C15.516,34.232 14.578,35.506 13.423,36.517C12.22,37.575 10.885,38.369 9.418,38.898C7.95,39.427 6.47,39.692 4.979,39.692C3.488,39.692 2.008,39.427 0.542,38.898C-0.927,38.369 -2.237,37.575 -3.392,36.517C-4.595,35.506 -5.557,34.232 -6.278,32.692C-7,31.153 -7.361,29.3 -7.361,27.135L-7.361,0Z" style="fill-rule:nonzero;"/>
                    </g>
                    <g transform="matrix(1.28154,0,0,1.28154,5550.12,1105.73)">
                        <path d="M0,53.262L0,0L7.63,0L7.63,45.632L22.741,45.632L22.741,53.262L0,53.262Z" style="fill-rule:nonzero;"/>
                    </g>
                    <g transform="matrix(1.28154,0,0,1.28154,5605.34,1129.6)">
                        <path d="M0,16.009L-3.74,-3.291L-3.89,-3.291L-7.63,16.009L0,16.009ZM-18.851,34.635L-6.957,-18.626L-0.598,-18.626L11.296,34.635L3.666,34.635L1.421,23.19L-8.977,23.19L-11.221,34.635L-18.851,34.635Z" style="fill-rule:nonzero;"/>
                    </g>
                    <g transform="matrix(1.28154,0,0,1.28154,5671.78,1173.99)">
                        <path d="M0,-53.262L-7.93,0L-15.111,0L-20.946,-34.561L-21.095,-34.561L-26.855,0L-34.037,0L-41.966,-53.262L-33.887,-53.262L-30.072,-19.45L-29.922,-19.45L-23.938,-53.262L-18.103,-53.262L-11.894,-18.627L-11.745,-18.627L-8.079,-53.262L0,-53.262Z" style="fill-rule:nonzero;"/>
                    </g>
                    <g transform="matrix(1.28154,0,0,1.28154,5687.02,1105.73)">
                        <path d="M0,53.262L0,30.745L-10.473,0L-2.394,0L3.74,21.17L3.89,21.17L10.024,0L18.103,0L7.63,30.745L7.63,53.262L0,53.262Z" style="fill-rule:nonzero;"/>
                    </g>
                    <g transform="matrix(1.28154,0,0,1.28154,5715.11,1105.73)">
                        <path d="M0,53.262L0,0L22.741,0L22.741,7.181L7.63,7.181L7.63,22.816L20.796,22.816L20.796,29.997L7.63,29.997L7.63,45.632L22.741,45.632L22.741,53.262L0,53.262Z" style="fill-rule:nonzero;"/>
                    </g>
                    <g transform="matrix(1.28154,0,0,1.28154,5760.35,1164.79)">
                        <path d="M0,-38.9L0,-22.293L4.339,-22.293C5.686,-22.293 6.757,-22.48 7.556,-22.854C8.353,-23.228 8.977,-23.763 9.426,-24.462C9.824,-25.16 10.099,-26.021 10.249,-27.043C10.398,-28.065 10.473,-29.25 10.473,-30.596C10.473,-31.943 10.398,-33.127 10.249,-34.15C10.099,-35.171 9.8,-36.057 9.351,-36.805C8.403,-38.201 6.608,-38.9 3.965,-38.9L0,-38.9ZM-7.63,7.181L-7.63,-46.081L4.638,-46.081C13.615,-46.081 18.103,-40.869 18.103,-30.447C18.103,-27.305 17.617,-24.636 16.645,-22.442C15.672,-20.248 13.963,-18.478 11.521,-17.131L19.749,7.181L11.67,7.181L4.563,-15.561L0,-15.561L0,7.181L-7.63,7.181Z" style="fill-rule:nonzero;"/>
                    </g>
                </g>
            </g>
        </g>
    </g>
</svg>
