<?xml version="1.0" encoding="UTF-8" standalone="no"?>
<!DOCTYPE svg PUBLIC "-//W3C//DTD SVG 1.1//EN" "http://www.w3.org/Graphics/SVG/1.1/DTD/svg11.dtd">
<svg width="100%" height="100%" viewBox="0 0 100 100" version="1.1" xmlns="http://www.w3.org/2000/svg" xmlns:xlink="http://www.w3.org/1999/xlink" xml:space="preserve" xmlns:serif="http://www.serif.com/" style="fill-rule:evenodd;clip-rule:evenodd;stroke-linejoin:round;stroke-miterlimit:2;">
    <g transform="matrix(1,0,0,1,-574,0)">
        <g id="MSS" transform="matrix(1,0,0,1,574.003,0)">
            <rect x="0" y="0" width="100" height="100" style="fill:none;"/>
            <g id="Logo" transform="matrix(0.031292,0,0,0.031292,-3.38908,12.2146)">
                <g id="Leafs">
                    <g transform="matrix(1,0,0,1,-1475.1,327.217)">
                        <path d="M2190.68,572.331C2190.68,572.331 1839.58,946.901 2216.55,1387.55C2477.8,1692.94 2598.45,1710.21 2707.86,1905.27C2817.27,2100.34 2773.34,2121.71 2773.34,2121.71C2773.34,2121.71 2919.48,2026.4 2919.48,1731.15C2919.48,1435.91 2699.6,1266.78 2562.22,1129.4C2424.84,992.025 2202.23,867.844 2190.68,572.331Z"/>
                    </g>
                    <g transform="matrix(-1,0,0,1,4887.41,327.217)">
                        <path d="M2190.68,572.331C2190.68,572.331 1839.58,946.901 2216.55,1387.55C2477.8,1692.94 2598.45,1710.21 2707.86,1905.27C2817.27,2100.34 2773.34,2121.71 2773.34,2121.71C2773.34,2121.71 2919.48,2026.4 2919.48,1731.15C2919.48,1435.91 2699.6,1266.78 2562.22,1129.4C2424.84,992.025 2202.23,867.844 2190.68,572.331Z"/>
                    </g>
                    <g transform="matrix(1,0,0,1,-1258.98,-192.929)">
                        <path d="M2190.68,572.331C2190.68,572.331 1839.58,946.901 2216.55,1387.55C2477.8,1692.94 2598.45,1710.21 2707.86,1905.27C2817.27,2100.34 2773.34,2121.71 2773.34,2121.71C2773.34,2121.71 2919.48,2026.4 2919.48,1731.15C2919.48,1435.91 2699.6,1266.78 2562.22,1129.4C2424.84,992.025 2202.23,867.844 2190.68,572.331Z"/>
                    </g>
                    <g transform="matrix(-1,0,0,1,4671.29,-192.929)">
                        <path d="M2190.68,572.331C2190.68,572.331 1839.58,946.901 2216.55,1387.55C2477.8,1692.94 2598.45,1710.21 2707.86,1905.27C2817.27,2100.34 2773.34,2121.71 2773.34,2121.71C2773.34,2121.71 2919.48,2026.4 2919.48,1731.15C2919.48,1435.91 2699.6,1266.78 2562.22,1129.4C2424.84,992.025 2202.23,867.844 2190.68,572.331Z"/>
                    </g>
                </g>
                <g id="Circle" transform="matrix(1,0,0,1,-1279.58,-427.301)">
                    <circle cx="2985.73" cy="1309.92" r="245.671"/>
                </g>
                <g id="MSS1" serif:id="MSS" transform="matrix(2.32192,0,0,2.32192,-4467.81,-23.5342)">
                    <g transform="matrix(0.430679,0,0,0.430679,1924.19,10.1357)">
                        <path d="M1080.63,163.539L1261.39,438.39L1310.93,438.39L1488.77,167.934L1488.77,438.39L1545.57,438.39L1545.57,100.61L1468.8,100.61L1286.16,374.883L1103.51,100.61L1023.82,100.61L1023.82,438.39L1080.63,438.39L1080.63,163.539Z" style="fill-rule:nonzero;"/>
                    </g>
                    <g transform="matrix(0.430679,0,0,0.430679,1924.19,10.1357)">
                        <path d="M1819.88,241.097L1764.69,241.097C1747.05,241.097 1731.84,240.72 1719.09,239.962C1706.66,239.223 1696.14,237.994 1687.54,236.246C1679.51,234.616 1673.04,232.606 1668.15,230.099C1664,227.969 1660.72,225.399 1658.43,222.257C1656.16,219.136 1654.68,215.499 1653.94,211.373C1653.04,206.368 1652.61,200.656 1652.61,194.239C1652.61,184.495 1654.16,176.348 1657.53,169.852C1660.65,163.829 1666.39,159.222 1674.42,155.652C1683.84,151.465 1696.69,148.576 1712.91,146.809C1729.96,144.953 1751.68,144.036 1778.07,144.036L1818.21,144.036C1838.06,144.036 1854.74,144.48 1868.25,145.377C1880.78,146.208 1890.9,148.16 1898.58,151.421C1904.96,154.134 1909.62,158.103 1912.39,163.529C1915.54,169.716 1916.92,178.304 1916.92,189.222L1916.92,197.555L1973.72,197.555L1973.72,189.222C1973.72,178.578 1972.82,168.896 1971.05,160.174C1969.15,150.863 1965.78,142.547 1960.96,135.209C1956.11,127.802 1949.6,121.405 1941.4,116.069C1933.62,111.011 1923.87,106.737 1912.09,103.34C1900.8,100.083 1887.34,97.674 1871.7,96.154C1856.42,94.668 1838.59,93.92 1818.21,93.92L1778.07,93.92C1753.23,93.92 1731.62,94.844 1713.27,96.679C1694.61,98.545 1678.65,101.326 1665.37,104.986C1651.54,108.801 1640.23,113.605 1631.4,119.289C1622.18,125.225 1614.96,132.019 1609.65,139.595C1604.26,147.275 1600.57,155.861 1598.59,165.362C1596.74,174.247 1595.8,183.872 1595.8,194.239C1595.8,203.989 1596.39,213.047 1597.56,221.415C1598.82,230.512 1601.57,238.771 1605.76,246.206C1610.02,253.748 1616.19,260.489 1624.37,266.346C1632.13,271.894 1642.43,276.606 1655.35,280.33C1667.59,283.857 1682.74,286.579 1700.8,288.451C1718.53,290.287 1739.83,291.213 1764.69,291.213L1819.88,291.213C1841.72,291.213 1859.39,292.117 1872.9,293.959C1885.36,295.657 1895.05,298.376 1901.9,302.4C1907.63,305.765 1911.55,310.216 1913.5,315.894C1915.83,322.697 1916.92,331.211 1916.92,341.416C1916.92,351.286 1915.38,359.684 1912.09,366.568C1909.04,372.936 1903.7,377.984 1896.26,381.928C1887.74,386.445 1876.3,389.64 1861.97,391.704C1846.82,393.889 1827.77,394.964 1804.83,394.964L1751.31,394.964C1731.47,394.964 1714.82,394.52 1701.38,393.624C1688.92,392.793 1678.83,390.839 1671.16,387.579C1664.78,384.866 1660.11,380.897 1657.35,375.471C1654.19,369.284 1652.82,360.696 1652.82,349.778L1652.82,341.445L1596.01,341.445L1596.01,349.778C1596.01,360.415 1596.91,370.127 1598.69,378.917C1600.58,388.307 1603.96,396.662 1608.77,404C1613.6,411.364 1620.03,417.802 1628.11,423.266C1635.84,428.499 1645.61,432.874 1657.44,436.287C1668.72,439.541 1682.17,441.983 1697.79,443.574C1713.08,445.131 1730.92,445.916 1751.31,445.916L1804.83,445.916C1827.52,445.916 1847.33,444.88 1864.27,442.824C1881.55,440.727 1896.33,437.631 1908.62,433.582C1921.41,429.37 1931.91,424.207 1940.19,418.19C1948.77,411.946 1955.54,404.817 1960.53,396.855C1965.52,388.909 1969,380.149 1970.94,370.567C1972.79,361.478 1973.72,351.761 1973.72,341.416C1973.72,331.289 1973.18,321.885 1972.09,313.205C1970.92,303.813 1968.35,295.329 1964.43,287.737C1960.45,280.011 1954.82,273.101 1947.49,267.047C1940.4,261.188 1930.92,256.213 1918.97,252.281C1907.72,248.579 1893.9,245.757 1877.49,243.869C1861.48,242.027 1842.28,241.097 1819.88,241.097Z" style="fill-rule:nonzero;"/>
                    </g>
                    <g transform="matrix(0.430679,0,0,0.430679,1924.19,10.1357)">
                        <path d="M2234.66,241.097L2179.47,241.097C2161.82,241.097 2146.62,240.72 2133.86,239.962C2121.43,239.223 2110.91,237.994 2102.31,236.246C2094.28,234.616 2087.81,232.606 2082.92,230.099C2078.77,227.969 2075.49,225.399 2073.2,222.257C2070.93,219.136 2069.45,215.499 2068.71,211.373C2067.82,206.368 2067.38,200.656 2067.38,194.239C2067.38,184.495 2068.93,176.348 2072.3,169.852C2075.42,163.829 2081.16,159.222 2089.19,155.652C2098.61,151.465 2111.46,148.576 2127.68,146.809C2144.73,144.953 2166.45,144.036 2192.85,144.036L2232.98,144.036C2252.84,144.036 2269.51,144.48 2283.03,145.377C2295.56,146.208 2305.68,148.16 2313.35,151.421C2319.73,154.134 2324.4,158.103 2327.16,163.529C2330.32,169.716 2331.69,178.304 2331.69,189.222L2331.69,197.555L2388.49,197.555L2388.49,189.222C2388.49,178.578 2387.59,168.896 2385.82,160.174C2383.93,150.863 2380.55,142.547 2375.74,135.209C2370.88,127.802 2364.37,121.405 2356.17,116.069C2348.39,111.011 2338.64,106.737 2326.86,103.34C2315.57,100.083 2302.11,97.674 2286.47,96.154C2271.19,94.668 2253.36,93.92 2232.98,93.92L2192.85,93.92C2168,93.92 2146.4,94.844 2128.04,96.679C2109.39,98.545 2093.42,101.326 2080.14,104.986C2066.31,108.801 2055,113.605 2046.17,119.289C2036.96,125.225 2029.73,132.019 2024.42,139.595C2019.04,147.275 2015.34,155.861 2013.36,165.362C2011.51,174.247 2010.58,183.872 2010.58,194.239C2010.58,203.989 2011.16,213.047 2012.33,221.415C2013.59,230.512 2016.34,238.771 2020.53,246.206C2024.79,253.748 2030.96,260.489 2039.15,266.346C2046.9,271.894 2057.2,276.606 2070.12,280.33C2082.36,283.857 2097.51,286.579 2115.58,288.451C2133.3,290.287 2154.6,291.213 2179.47,291.213L2234.66,291.213C2256.49,291.213 2274.17,292.117 2287.68,293.959C2300.13,295.657 2309.82,298.376 2316.67,302.4C2322.41,305.765 2326.33,310.216 2328.27,315.894C2330.6,322.697 2331.69,331.211 2331.69,341.416C2331.69,351.286 2330.15,359.684 2326.86,366.568C2323.82,372.936 2318.47,377.984 2311.03,381.928C2302.51,386.445 2291.07,389.64 2276.74,391.704C2261.59,393.889 2242.54,394.964 2219.61,394.964L2166.09,394.964C2146.24,394.964 2129.59,394.52 2116.15,393.624C2103.69,392.793 2093.6,390.839 2085.93,387.579C2079.55,384.866 2074.88,380.897 2072.12,375.471C2068.96,369.284 2067.59,360.696 2067.59,349.778L2067.59,341.445L2010.78,341.445L2010.78,349.778C2010.78,360.415 2011.68,370.127 2013.46,378.917C2015.35,388.307 2018.73,396.662 2023.54,404C2028.37,411.364 2034.8,417.802 2042.88,423.266C2050.62,428.499 2060.38,432.874 2072.21,436.287C2083.49,439.541 2096.94,441.983 2112.56,443.574C2127.85,445.131 2145.69,445.916 2166.09,445.916L2219.61,445.916C2242.29,445.916 2262.1,444.88 2279.04,442.824C2296.32,440.727 2311.1,437.631 2323.4,433.582C2336.18,429.37 2346.69,424.207 2354.96,418.19C2363.54,411.946 2370.31,404.817 2375.3,396.855C2380.29,388.909 2383.77,380.149 2385.71,370.567C2387.56,361.478 2388.49,351.761 2388.49,341.416C2388.49,331.289 2387.95,321.885 2386.86,313.205C2385.69,303.813 2383.12,295.329 2379.21,287.737C2375.22,280.011 2369.59,273.101 2362.26,267.047C2355.17,261.188 2345.69,256.213 2333.74,252.281C2322.49,248.579 2308.67,245.757 2292.26,243.869C2276.25,242.027 2257.05,241.097 2234.66,241.097Z" style="fill-rule:nonzero;"/>
                    </g>
                </g>
                <g id="Medical-skill-school" serif:id="Medical skill school" transform="matrix(0.43708,0,0,0.43708,-3.16507,479.025)">
                    <g transform="matrix(2.28791,0,0,2.28791,7.24141,-1095.97)">
                        <path d="M1041.79,515.959L1075.03,566.493L1084.91,566.493L1117.59,516.787L1117.59,566.493L1129.31,566.493L1129.31,501.88L1114.07,501.88L1079.97,553.095L1045.86,501.88L1030.07,501.88L1030.07,566.493L1041.79,566.493L1041.79,515.959Z" style="fill-rule:nonzero;"/>
                    </g>
                    <g transform="matrix(2.28791,0,0,2.28791,7.24141,-1095.97)">
                        <path d="M1140.26,501.88L1140.26,566.493L1204.87,566.493L1204.87,556.03L1151.98,556.03L1151.98,538.788L1202.35,538.788L1202.35,528.325L1151.98,528.325L1151.98,512.343L1204.87,512.343L1204.87,501.88L1140.26,501.88Z" style="fill-rule:nonzero;"/>
                    </g>
                    <g transform="matrix(2.28791,0,0,2.28791,7.24141,-1095.97)">
                        <path d="M1210.78,501.88L1210.78,566.493L1258.16,566.493C1262.91,566.493 1266.92,566.211 1270.18,565.657C1273.6,565.075 1276.41,564.172 1278.64,562.98C1281.03,561.703 1282.86,560.092 1284.15,558.176C1285.4,556.324 1286.32,554.145 1286.89,551.631C1287.43,549.27 1287.75,546.607 1287.85,543.64C1287.94,540.799 1287.99,537.648 1287.99,534.186C1287.99,530.725 1287.94,527.573 1287.85,524.733C1287.75,521.765 1287.43,519.102 1286.89,516.742C1286.32,514.228 1285.4,512.049 1284.15,510.196C1282.86,508.281 1281.03,506.669 1278.64,505.392C1276.41,504.201 1273.6,503.298 1270.18,502.716C1266.92,502.162 1262.91,501.88 1258.16,501.88L1210.78,501.88ZM1258.16,556.03L1222.5,556.03L1222.5,512.343L1258.16,512.343C1261.45,512.343 1264.22,512.432 1266.47,512.612C1268.54,512.777 1270.25,513.098 1271.59,513.606C1272.68,514.016 1273.54,514.59 1274.13,515.373C1274.78,516.239 1275.24,517.397 1275.54,518.824C1275.9,520.49 1276.11,522.54 1276.17,524.971C1276.23,527.541 1276.26,530.613 1276.26,534.186C1276.26,537.76 1276.23,540.832 1276.17,543.401C1276.11,545.833 1275.9,547.883 1275.54,549.549C1275.24,550.976 1274.78,552.133 1274.13,553C1273.54,553.783 1272.68,554.356 1271.59,554.767C1270.25,555.274 1268.53,555.596 1266.45,555.761C1264.19,555.941 1261.43,556.03 1258.16,556.03Z" style="fill-rule:nonzero;"/>
                    </g>
                    <g transform="matrix(2.28791,0,0,2.28791,7.24141,-1095.97)">
                        <rect x="1296.41" y="501.88" width="11.72" height="64.613" style="fill-rule:nonzero;"/>
                    </g>
                    <g transform="matrix(2.28791,0,0,2.28791,7.24141,-1095.97)">
                        <path d="M1382.01,522.853L1382.01,524.936L1393.73,524.936L1393.73,522.853C1393.73,520.418 1393.56,518.205 1393.23,516.214C1392.87,514.086 1392.24,512.181 1391.34,510.497C1390.41,508.762 1389.17,507.254 1387.62,505.975C1386.11,504.735 1384.21,503.696 1381.91,502.884C1379.74,502.119 1377.16,501.543 1374.16,501.168C1371.25,500.804 1367.86,500.62 1363.98,500.62L1346.31,500.62C1341.55,500.62 1337.54,500.917 1334.28,501.499C1330.85,502.11 1328.03,503.051 1325.82,504.288C1323.45,505.609 1321.63,507.284 1320.34,509.289C1319.1,511.215 1318.18,513.473 1317.61,516.071C1317.08,518.521 1316.76,521.287 1316.68,524.371C1316.6,527.326 1316.56,530.598 1316.56,534.186C1316.56,537.775 1316.6,541.047 1316.68,544.002C1316.76,547.085 1317.08,549.852 1317.61,552.302C1318.18,554.899 1319.1,557.157 1320.34,559.084C1321.63,561.088 1323.45,562.763 1325.82,564.084C1328.03,565.321 1330.85,566.262 1334.28,566.874C1337.54,567.456 1341.55,567.752 1346.31,567.752L1363.98,567.752C1367.86,567.752 1371.25,567.568 1374.16,567.205C1377.17,566.829 1379.76,566.236 1381.93,565.442C1384.24,564.598 1386.14,563.512 1387.65,562.209C1389.2,560.875 1390.44,559.291 1391.36,557.457C1392.25,555.688 1392.88,553.673 1393.23,551.407C1393.56,549.279 1393.73,546.897 1393.73,544.261L1393.73,542.177L1382.01,542.177L1382.01,544.261C1382.01,546.267 1381.92,548.015 1381.75,549.507C1381.59,550.824 1381.31,551.955 1380.88,552.896C1380.51,553.705 1379.99,554.379 1379.33,554.912C1378.6,555.495 1377.63,555.932 1376.44,556.265C1375.06,556.653 1373.39,556.913 1371.42,557.059C1369.34,557.213 1366.86,557.289 1363.98,557.289L1346.31,557.289C1343.02,557.289 1340.26,557.194 1338.01,557.002C1335.96,556.826 1334.26,556.484 1332.92,555.945C1331.83,555.506 1330.98,554.896 1330.4,554.074C1329.74,553.151 1329.29,551.916 1328.99,550.39C1328.64,548.623 1328.44,546.452 1328.38,543.876C1328.32,541.175 1328.28,537.945 1328.28,534.186C1328.28,530.424 1328.31,527.191 1328.36,524.487C1328.41,521.915 1328.61,519.746 1328.95,517.982C1329.25,516.463 1329.71,515.232 1330.37,514.311C1330.97,513.485 1331.83,512.87 1332.92,512.428C1334.26,511.888 1335.96,511.547 1338.01,511.371C1340.26,511.178 1343.02,511.084 1346.31,511.084L1363.98,511.084C1367.67,511.084 1370.77,511.21 1373.27,511.466C1375.47,511.692 1377.26,512.178 1378.61,512.99C1379.78,513.692 1380.61,514.736 1381.11,516.101C1381.73,517.758 1382.01,520.011 1382.01,522.853Z" style="fill-rule:nonzero;"/>
                    </g>
                    <g transform="matrix(2.28791,0,0,2.28791,7.24141,-1095.97)">
                        <path d="M1462.19,552.641L1469.75,566.493L1479.8,566.493L1481.6,563.36L1445.73,501.88L1433.27,501.88L1397.4,563.36L1399.2,566.493L1409.25,566.493L1416.81,552.641L1462.19,552.641ZM1456.06,542.177L1422.94,542.177L1439.5,513.199L1456.06,542.177Z" style="fill-rule:nonzero;"/>
                    </g>
                    <g transform="matrix(2.28791,0,0,2.28791,7.24141,-1095.97)">
                        <path d="M1487.79,501.88L1487.79,566.493L1547.36,566.493L1547.36,556.03L1499.51,556.03L1499.51,501.88L1487.79,501.88Z" style="fill-rule:nonzero;"/>
                    </g>
                    <g transform="matrix(2.28791,0,0,2.28791,7.24141,-1095.97)">
                        <path d="M1611.08,528.325L1600.69,528.325C1597.38,528.325 1594.53,528.255 1592.14,528.112C1589.83,527.975 1587.87,527.747 1586.27,527.422C1584.81,527.127 1583.64,526.766 1582.75,526.311C1582.05,525.951 1581.49,525.522 1581.1,524.99C1580.72,524.464 1580.47,523.849 1580.35,523.154C1580.18,522.238 1580.11,521.193 1580.11,520.019C1580.11,518.28 1580.37,516.825 1580.97,515.665C1581.51,514.624 1582.52,513.843 1583.91,513.226C1585.64,512.454 1588.01,511.928 1591,511.603C1594.19,511.255 1598.26,511.084 1603.21,511.084L1610.77,511.084C1614.49,511.084 1617.62,511.167 1620.15,511.335C1622.44,511.487 1624.29,511.837 1625.69,512.433C1626.77,512.891 1627.57,513.554 1628.03,514.472C1628.6,515.58 1628.83,517.12 1628.83,519.075L1628.83,521.158L1640.55,521.158L1640.55,519.075C1640.55,517.033 1640.38,515.177 1640.04,513.504C1639.67,511.684 1639.01,510.059 1638.07,508.625C1637.12,507.174 1635.84,505.919 1634.23,504.873C1632.73,503.897 1630.85,503.069 1628.58,502.414C1626.43,501.793 1623.86,501.333 1620.88,501.043C1617.99,500.762 1614.62,500.62 1610.77,500.62L1603.21,500.62C1598.51,500.62 1594.43,500.795 1590.96,501.142C1587.41,501.497 1584.38,502.026 1581.86,502.722C1579.19,503.456 1577.02,504.384 1575.32,505.478C1573.52,506.635 1572.12,507.961 1571.08,509.437C1570.03,510.94 1569.31,512.619 1568.92,514.478C1568.56,516.183 1568.38,518.03 1568.38,520.019C1568.38,521.88 1568.5,523.609 1568.72,525.206C1568.97,526.985 1569.51,528.6 1570.33,530.054C1571.16,531.535 1572.37,532.861 1573.98,534.011C1575.48,535.084 1577.47,535.999 1579.96,536.719C1582.29,537.39 1585.17,537.91 1588.61,538.266C1591.96,538.613 1595.99,538.788 1600.69,538.788L1611.08,538.788C1615.16,538.788 1618.47,538.956 1620.99,539.3C1623.25,539.609 1625.01,540.093 1626.26,540.823C1627.22,541.389 1627.89,542.132 1628.22,543.086C1628.64,544.322 1628.83,545.87 1628.83,547.724C1628.83,549.494 1628.56,551.002 1627.97,552.237C1627.44,553.342 1626.51,554.21 1625.22,554.895C1623.65,555.723 1621.55,556.302 1618.93,556.681C1616.1,557.089 1612.53,557.289 1608.25,557.289L1598.17,557.289C1594.45,557.289 1591.33,557.206 1588.81,557.038C1586.53,556.886 1584.69,556.535 1583.29,555.94C1582.2,555.481 1581.41,554.818 1580.94,553.901C1580.38,552.793 1580.14,551.253 1580.14,549.298L1580.14,547.215L1568.42,547.215L1568.42,549.298C1568.42,551.337 1568.6,553.199 1568.94,554.885C1569.31,556.72 1569.97,558.353 1570.91,559.787C1571.85,561.228 1573.11,562.489 1574.69,563.558C1576.19,564.569 1578.07,565.417 1580.36,566.077C1582.51,566.697 1585.07,567.163 1588.04,567.466C1590.94,567.761 1594.31,567.91 1598.17,567.91L1608.25,567.91C1612.54,567.91 1616.29,567.713 1619.5,567.324C1622.79,566.925 1625.6,566.333 1627.94,565.562C1630.41,564.75 1632.43,563.752 1634.03,562.592C1635.7,561.375 1637.02,559.985 1637.99,558.433C1638.96,556.886 1639.64,555.18 1640.02,553.314C1640.37,551.571 1640.55,549.708 1640.55,547.724C1640.55,545.795 1640.45,544.003 1640.24,542.35C1640.01,540.518 1639.51,538.864 1638.75,537.384C1637.97,535.869 1636.86,534.514 1635.43,533.328C1634.05,532.19 1632.21,531.22 1629.89,530.456C1627.75,529.75 1625.11,529.21 1621.98,528.85C1618.95,528.502 1615.32,528.325 1611.08,528.325Z" style="fill-rule:nonzero;"/>
                    </g>
                    <g transform="matrix(2.28791,0,0,2.28791,7.24141,-1095.97)">
                        <path d="M1719.07,501.88L1707.09,501.88L1668.05,528.325L1660.7,528.325L1660.7,501.88L1648.98,501.88L1648.98,566.493L1660.7,566.493L1660.7,538.788L1668.05,538.788L1708.34,566.493L1720.32,566.493L1721.52,562.703L1679.9,533.568L1720.25,505.677L1719.07,501.88Z" style="fill-rule:nonzero;"/>
                    </g>
                    <g transform="matrix(2.28791,0,0,2.28791,7.24141,-1095.97)">
                        <rect x="1728.32" y="501.88" width="11.72" height="64.613" style="fill-rule:nonzero;"/>
                    </g>
                    <g transform="matrix(2.28791,0,0,2.28791,7.24141,-1095.97)">
                        <path d="M1750.98,501.88L1750.98,566.493L1810.56,566.493L1810.56,556.03L1762.7,556.03L1762.7,501.88L1750.98,501.88Z" style="fill-rule:nonzero;"/>
                    </g>
                    <g transform="matrix(2.28791,0,0,2.28791,7.24141,-1095.97)">
                        <path d="M1816.47,501.88L1816.47,566.493L1876.04,566.493L1876.04,556.03L1828.19,556.03L1828.19,501.88L1816.47,501.88Z" style="fill-rule:nonzero;"/>
                    </g>
                    <g transform="matrix(2.28791,0,0,2.28791,7.24141,-1095.97)">
                        <path d="M1939.76,528.325L1929.37,528.325C1926.06,528.325 1923.21,528.255 1920.82,528.112C1918.5,527.975 1916.55,527.747 1914.95,527.422C1913.49,527.127 1912.32,526.766 1911.43,526.311C1910.73,525.951 1910.17,525.522 1909.78,524.99C1909.4,524.464 1909.15,523.849 1909.03,523.154C1908.86,522.238 1908.79,521.193 1908.79,520.019C1908.79,518.28 1909.05,516.825 1909.65,515.665C1910.19,514.624 1911.2,513.843 1912.59,513.226C1914.32,512.454 1916.69,511.928 1919.68,511.603C1922.87,511.255 1926.94,511.084 1931.89,511.084L1939.44,511.084C1943.17,511.084 1946.3,511.167 1948.83,511.335C1951.12,511.487 1952.97,511.837 1954.37,512.433C1955.45,512.891 1956.25,513.554 1956.71,514.472C1957.28,515.58 1957.51,517.12 1957.51,519.075L1957.51,521.158L1969.23,521.158L1969.23,519.075C1969.23,517.033 1969.06,515.177 1968.72,513.504C1968.35,511.684 1967.69,510.059 1966.75,508.625C1965.79,507.174 1964.52,505.919 1962.91,504.873C1961.41,503.897 1959.53,503.069 1957.26,502.414C1955.11,501.793 1952.54,501.333 1949.56,501.043C1946.67,500.762 1943.3,500.62 1939.44,500.62L1931.89,500.62C1927.19,500.62 1923.11,500.795 1919.64,501.142C1916.09,501.497 1913.06,502.026 1910.54,502.722C1907.87,503.456 1905.7,504.384 1904,505.478C1902.2,506.635 1900.8,507.961 1899.76,509.437C1898.71,510.94 1897.99,512.619 1897.6,514.478C1897.24,516.183 1897.06,518.03 1897.06,520.019C1897.06,521.88 1897.17,523.609 1897.4,525.206C1897.64,526.985 1898.18,528.6 1899,530.054C1899.84,531.535 1901.05,532.861 1902.66,534.011C1904.15,535.084 1906.14,535.999 1908.64,536.719C1910.97,537.39 1913.85,537.91 1917.29,538.266C1920.64,538.613 1924.67,538.788 1929.37,538.788L1939.76,538.788C1943.84,538.788 1947.14,538.956 1949.67,539.3C1951.93,539.609 1953.69,540.093 1954.94,540.823C1955.9,541.389 1956.57,542.132 1956.89,543.086C1957.32,544.322 1957.51,545.87 1957.51,547.724C1957.51,549.494 1957.24,551.002 1956.65,552.237C1956.12,553.342 1955.19,554.21 1953.89,554.895C1952.33,555.723 1950.23,556.302 1947.61,556.681C1944.77,557.089 1941.21,557.289 1936.92,557.289L1926.85,557.289C1923.13,557.289 1920.01,557.206 1917.49,557.038C1915.21,556.886 1913.37,556.535 1911.96,555.94C1910.88,555.481 1910.09,554.818 1909.62,553.901C1909.06,552.793 1908.82,551.253 1908.82,549.298L1908.82,547.215L1897.1,547.215L1897.1,549.298C1897.1,551.337 1897.28,553.199 1897.62,554.885C1897.99,556.72 1898.65,558.353 1899.59,559.787C1900.53,561.228 1901.79,562.489 1903.37,563.558C1904.87,564.569 1906.75,565.417 1909.04,566.077C1911.18,566.697 1913.75,567.163 1916.72,567.466C1919.62,567.761 1922.99,567.91 1926.85,567.91L1936.92,567.91C1941.22,567.91 1944.97,567.713 1948.17,567.324C1951.47,566.925 1954.28,566.333 1956.62,565.562C1959.09,564.75 1961.11,563.752 1962.71,562.592C1964.38,561.375 1965.7,559.985 1966.67,558.433C1967.64,556.886 1968.32,555.18 1968.7,553.314C1969.05,551.571 1969.23,549.708 1969.23,547.724C1969.23,545.795 1969.13,544.003 1968.92,542.35C1968.69,540.518 1968.19,538.864 1967.43,537.384C1966.64,535.869 1965.54,534.514 1964.11,533.328C1962.73,532.19 1960.89,531.22 1958.57,530.456C1956.42,529.75 1953.79,529.21 1950.66,528.85C1947.63,528.502 1944,528.325 1939.76,528.325Z" style="fill-rule:nonzero;"/>
                    </g>
                    <g transform="matrix(2.28791,0,0,2.28791,7.24141,-1095.97)">
                        <path d="M2040.58,522.853L2040.58,524.936L2052.31,524.936L2052.31,522.853C2052.31,520.418 2052.14,518.205 2051.81,516.214C2051.45,514.086 2050.82,512.181 2049.91,510.497C2048.99,508.762 2047.75,507.254 2046.19,505.975C2044.69,504.735 2042.79,503.696 2040.49,502.884C2038.32,502.119 2035.74,501.543 2032.73,501.168C2029.83,500.804 2026.43,500.62 2022.56,500.62L2004.89,500.62C2000.13,500.62 1996.12,500.917 1992.85,501.499C1989.43,502.11 1986.61,503.051 1984.39,504.288C1982.02,505.609 1980.21,507.284 1978.91,509.289C1977.67,511.215 1976.76,513.473 1976.19,516.071C1975.65,518.521 1975.34,521.287 1975.26,524.371C1975.18,527.326 1975.14,530.598 1975.14,534.186C1975.14,537.775 1975.18,541.047 1975.26,544.002C1975.34,547.085 1975.65,549.852 1976.19,552.302C1976.76,554.899 1977.67,557.157 1978.91,559.084C1980.21,561.088 1982.02,562.763 1984.39,564.084C1986.61,565.321 1989.43,566.262 1992.85,566.874C1996.12,567.456 2000.13,567.752 2004.89,567.752L2022.56,567.752C2026.43,567.752 2029.83,567.568 2032.73,567.205C2035.74,566.829 2038.34,566.236 2040.51,565.442C2042.82,564.598 2044.72,563.512 2046.23,562.209C2047.78,560.875 2049.01,559.291 2049.94,557.457C2050.83,555.688 2051.46,553.673 2051.81,551.407C2052.14,549.279 2052.31,546.897 2052.31,544.261L2052.31,542.177L2040.58,542.177L2040.58,544.261C2040.58,546.267 2040.5,548.015 2040.32,549.507C2040.17,550.824 2039.89,551.955 2039.46,552.896C2039.08,553.705 2038.57,554.379 2037.9,554.912C2037.17,555.495 2036.21,555.932 2035.02,556.265C2033.64,556.653 2031.96,556.913 2030,557.059C2027.92,557.213 2025.44,557.289 2022.56,557.289L2004.89,557.289C2001.6,557.289 1998.83,557.194 1996.59,557.002C1994.53,556.826 1992.84,556.484 1991.5,555.945C1990.41,555.506 1989.56,554.896 1988.98,554.074C1988.32,553.151 1987.87,551.916 1987.57,550.39C1987.22,548.623 1987.02,546.452 1986.96,543.876C1986.89,541.175 1986.86,537.945 1986.86,534.186C1986.86,530.424 1986.89,527.191 1986.94,524.487C1986.99,521.915 1987.18,519.746 1987.53,517.982C1987.83,516.463 1988.28,515.232 1988.95,514.311C1989.54,513.485 1990.4,512.87 1991.5,512.428C1992.84,511.888 1994.53,511.547 1996.59,511.371C1998.83,511.178 2001.6,511.084 2004.89,511.084L2022.56,511.084C2026.25,511.084 2029.35,511.21 2031.85,511.466C2034.05,511.692 2035.83,512.178 2037.19,512.99C2038.36,513.692 2039.18,514.736 2039.69,516.101C2040.31,517.758 2040.58,520.011 2040.58,522.853Z" style="fill-rule:nonzero;"/>
                    </g>
                    <g transform="matrix(2.28791,0,0,2.28791,7.24141,-1095.97)">
                        <path d="M2135.42,501.88L2123.7,501.88L2123.7,528.325L2072.45,528.325L2072.45,501.88L2060.73,501.88L2060.73,566.493L2072.45,566.493L2072.45,538.788L2123.7,538.788L2123.7,566.493L2135.42,566.493L2135.42,501.88Z" style="fill-rule:nonzero;"/>
                    </g>
                    <g transform="matrix(2.28791,0,0,2.28791,7.24141,-1095.97)">
                        <path d="M2196.34,500.62L2173.6,500.62C2168.83,500.62 2164.82,500.917 2161.56,501.499C2158.14,502.11 2155.32,503.051 2153.1,504.288C2150.73,505.609 2148.91,507.284 2147.62,509.289C2146.38,511.215 2145.47,513.473 2144.9,516.071C2144.36,518.521 2144.05,521.287 2143.97,524.371C2143.89,527.326 2143.85,530.598 2143.85,534.186C2143.85,537.775 2143.89,541.047 2143.97,544.002C2144.05,547.085 2144.36,549.852 2144.9,552.302C2145.47,554.899 2146.38,557.157 2147.62,559.084C2148.91,561.088 2150.73,562.763 2153.1,564.084C2155.32,565.321 2158.14,566.262 2161.56,566.874C2164.82,567.456 2168.83,567.752 2173.6,567.752L2196.34,567.752C2201.1,567.752 2205.12,567.456 2208.38,566.874C2211.8,566.262 2214.62,565.321 2216.84,564.084C2219.21,562.761 2221.02,561.082 2222.3,559.074C2223.53,557.151 2224.43,554.896 2225,552.302C2225.54,549.854 2225.86,547.091 2225.95,544.011C2226.04,541.053 2226.09,537.778 2226.09,534.186C2226.09,530.594 2226.04,527.32 2225.95,524.362C2225.86,521.282 2225.54,518.518 2225,516.071C2224.43,513.477 2223.53,511.222 2222.3,509.298C2221.02,507.29 2219.21,505.612 2216.84,504.288C2214.62,503.051 2211.8,502.11 2208.38,501.499C2205.12,500.917 2201.1,500.62 2196.34,500.62ZM2196.34,557.289L2173.6,557.289C2170.31,557.289 2167.54,557.194 2165.29,557.002C2163.24,556.826 2161.54,556.484 2160.21,555.945C2159.12,555.506 2158.27,554.896 2157.68,554.074C2157.03,553.151 2156.58,551.916 2156.28,550.39C2155.93,548.623 2155.73,546.452 2155.67,543.876C2155.6,541.175 2155.57,537.945 2155.57,534.186C2155.57,530.424 2155.6,527.191 2155.65,524.487C2155.7,521.915 2155.89,519.746 2156.24,517.982C2156.54,516.463 2156.99,515.232 2157.66,514.311C2158.25,513.485 2159.11,512.87 2160.21,512.428C2161.54,511.888 2163.24,511.547 2165.29,511.371C2167.54,511.178 2170.31,511.084 2173.6,511.084L2196.34,511.084C2199.63,511.084 2202.4,511.178 2204.64,511.371C2206.69,511.547 2208.38,511.887 2209.7,512.425C2210.79,512.868 2211.65,513.484 2212.24,514.311C2212.91,515.232 2213.36,516.463 2213.66,517.982C2214.01,519.749 2214.21,521.921 2214.27,524.497C2214.34,527.198 2214.37,530.428 2214.37,534.186C2214.37,537.945 2214.34,541.175 2214.27,543.876C2214.21,546.452 2214.01,548.623 2213.66,550.39C2213.36,551.91 2212.91,553.141 2212.24,554.061C2211.65,554.888 2210.79,555.503 2209.69,555.945C2208.35,556.484 2206.66,556.826 2204.61,557.002C2202.36,557.194 2199.6,557.289 2196.34,557.289Z" style="fill-rule:nonzero;"/>
                    </g>
                    <g transform="matrix(2.28791,0,0,2.28791,7.24141,-1095.97)">
                        <path d="M2284.49,500.62L2261.75,500.62C2256.99,500.62 2252.97,500.917 2249.71,501.499C2246.29,502.11 2243.47,503.051 2241.25,504.288C2238.88,505.609 2237.07,507.284 2235.77,509.289C2234.53,511.215 2233.62,513.473 2233.05,516.071C2232.51,518.521 2232.2,521.287 2232.12,524.371C2232.04,527.326 2232,530.598 2232,534.186C2232,537.775 2232.04,541.047 2232.12,544.002C2232.2,547.085 2232.51,549.852 2233.05,552.302C2233.62,554.899 2234.53,557.157 2235.77,559.084C2237.07,561.088 2238.88,562.763 2241.25,564.084C2243.47,565.321 2246.29,566.262 2249.71,566.874C2252.97,567.456 2256.99,567.752 2261.75,567.752L2284.49,567.752C2289.26,567.752 2293.27,567.456 2296.53,566.874C2299.95,566.262 2302.77,565.321 2304.99,564.084C2307.36,562.761 2309.18,561.082 2310.45,559.074C2311.68,557.151 2312.58,554.896 2313.15,552.302C2313.69,549.854 2314.01,547.091 2314.1,544.011C2314.2,541.053 2314.24,537.778 2314.24,534.186C2314.24,530.594 2314.2,527.32 2314.1,524.362C2314.01,521.282 2313.69,518.518 2313.15,516.071C2312.58,513.477 2311.68,511.222 2310.45,509.298C2309.18,507.29 2307.36,505.612 2304.99,504.288C2302.77,503.051 2299.95,502.11 2296.53,501.499C2293.27,500.917 2289.26,500.62 2284.49,500.62ZM2284.49,557.289L2261.75,557.289C2258.46,557.289 2255.69,557.194 2253.44,557.002C2251.39,556.826 2249.7,556.484 2248.36,555.945C2247.27,555.506 2246.42,554.896 2245.84,554.074C2245.18,553.151 2244.73,551.916 2244.43,550.39C2244.08,548.623 2243.88,546.452 2243.82,543.876C2243.75,541.175 2243.72,537.945 2243.72,534.186C2243.72,530.424 2243.75,527.191 2243.8,524.487C2243.85,521.915 2244.04,519.746 2244.39,517.982C2244.69,516.463 2245.14,515.232 2245.81,514.311C2246.4,513.485 2247.26,512.87 2248.36,512.428C2249.7,511.888 2251.39,511.547 2253.44,511.371C2255.69,511.178 2258.46,511.084 2261.75,511.084L2284.49,511.084C2287.78,511.084 2290.55,511.178 2292.8,511.371C2294.84,511.547 2296.53,511.887 2297.86,512.425C2298.94,512.868 2299.8,513.484 2300.39,514.311C2301.06,515.232 2301.51,516.463 2301.81,517.982C2302.16,519.749 2302.36,521.921 2302.42,524.497C2302.49,527.198 2302.52,530.428 2302.52,534.186C2302.52,537.945 2302.49,541.175 2302.42,543.876C2302.36,546.452 2302.16,548.623 2301.81,550.39C2301.51,551.91 2301.06,553.141 2300.39,554.061C2299.8,554.888 2298.94,555.503 2297.84,555.945C2296.51,556.484 2294.81,556.826 2292.76,557.002C2290.51,557.194 2287.76,557.289 2284.49,557.289Z" style="fill-rule:nonzero;"/>
                    </g>
                    <g transform="matrix(2.28791,0,0,2.28791,7.24141,-1095.97)">
                        <path d="M2322.67,501.88L2322.67,566.493L2382.24,566.493L2382.24,556.03L2334.39,556.03L2334.39,501.88L2322.67,501.88Z" style="fill-rule:nonzero;"/>
                    </g>
                </g>
            </g>
        </g>
    </g>
</svg>
