<?xml version="1.0" encoding="UTF-8" standalone="no"?>
<!DOCTYPE svg PUBLIC "-//W3C//DTD SVG 1.1//EN" "http://www.w3.org/Graphics/SVG/1.1/DTD/svg11.dtd">
<svg width="100%" height="100%" viewBox="0 0 101 100" version="1.1" xmlns="http://www.w3.org/2000/svg" xmlns:xlink="http://www.w3.org/1999/xlink" xml:space="preserve" xmlns:serif="http://www.serif.com/" style="fill-rule:evenodd;clip-rule:evenodd;stroke-linejoin:round;stroke-miterlimit:2;">
    <g transform="matrix(1,0,0,1,-1066,0)">
        <g id="SouZ" transform="matrix(1,0,0,1,1066.52,0)">
            <rect x="0" y="0" width="100" height="100" style="fill:none;"/>
            <g transform="matrix(0.204001,0,0,0.204001,39.7999,39.7999)">
                <g transform="matrix(1,0,0,1,-269.995,-190.015)">
                    <path d="M186.42,336.07L209.65,336.07L209.65,370.92L126,370.92L116.71,361.63L116.71,278L200.34,278L209.64,287.3L209.64,312.85L186.42,312.85L186.42,301.23L140,301.23L140,347.69L186.47,347.69L186.42,336.07ZM221.26,278L221.26,361.64L230.56,370.93L314.19,370.93L314.19,287.29L304.9,278L221.26,278ZM290.96,347.7L244.5,347.7L244.5,301.23L291,301.23L290.96,347.7ZM325.81,361.64L335.1,370.93L349,370.93L349,336.07L360.62,336.07L360.62,370.92L418.7,370.92L418.7,287.29L409.4,277.99L360.66,277.99L360.66,312.84L349,312.84L349,278L325.81,278L325.81,361.64ZM383.89,301.24L395.5,301.24L395.5,347.7L383.89,347.7L383.89,301.24ZM430.35,312.85L453.58,312.85L453.58,301.23L500.05,301.23L500.05,312.84L465.2,312.84L465.2,336.07L500.05,336.07L500.05,347.69L453.58,347.69L453.58,336.07L430.35,336.07L430.35,361.63L439.65,370.92L523.28,370.92L523.28,287.29L514,278L430.35,278L430.35,312.85Z" style="fill-rule:nonzero;"/>
                </g>
                <g transform="matrix(1,0,0,1,-269.995,-190.015)">
                    <path d="M288.67,265.34L221.3,226.45L221.3,148L288.67,109.1L302.54,117.1L235.24,155.96L235.24,218.25L288.67,249.1L304.97,239.69L281.7,226.24L281.7,148L349.07,109.1L416.45,148L416.45,226.46L349.07,265.36L334.79,257.12L402.51,218L402.51,155.76L349.07,124.91L332.58,134.43L356,148L356,226.46L288.67,265.34ZM318.87,142.34L301.68,152.26L318.87,162.19L336.07,152.26L318.87,142.34ZM311.87,173.91L295.61,164.53L295.61,218L311.87,227.39L311.87,173.91ZM325.81,227.61L342.07,218.22L342.07,164.54L325.81,173.92L325.81,227.61Z" style="fill-rule:nonzero;"/>
                </g>
            </g>
        </g>
    </g>
</svg>
