<?xml version="1.0" encoding="UTF-8" standalone="no"?>
<!DOCTYPE svg PUBLIC "-//W3C//DTD SVG 1.1//EN" "http://www.w3.org/Graphics/SVG/1.1/DTD/svg11.dtd">
<svg width="100%" height="100%" viewBox="0 0 101 101" version="1.1" xmlns="http://www.w3.org/2000/svg" xmlns:xlink="http://www.w3.org/1999/xlink" xml:space="preserve" xmlns:serif="http://www.serif.com/" style="fill-rule:evenodd;clip-rule:evenodd;stroke-linejoin:round;stroke-miterlimit:2;">
    <g transform="matrix(1,0,0,1,-1217,-3)">
        <g id="Symposy" transform="matrix(1,0,0,1,1217.85,3.85573)">
            <rect x="0" y="0" width="100" height="100" style="fill:none;"/>
            <g transform="matrix(0.759166,0,0,0.759166,-913.422,83.9732)">
                <path d="M1303.71,-24.275C1303.71,-24.275 1302.46,-27.022 1299.25,-27.022C1298.36,-27.022 1297,-26.419 1296.08,-25.471C1295.39,-24.755 1294.96,-23.872 1294.96,-23.024C1294.96,-20.532 1296.86,-19.185 1298.94,-18.044C1299.53,-17.722 1300.12,-17.409 1300.62,-17.038C1301.07,-16.699 1301.46,-16.325 1301.46,-15.724C1301.46,-15.283 1301.34,-14.851 1301.03,-14.538C1300.65,-14.17 1300.06,-13.991 1299.25,-13.991C1298.54,-13.991 1297.91,-14.333 1297.4,-14.708C1296.51,-15.365 1295.95,-16.184 1295.95,-16.184L1293.62,-14.611C1293.62,-14.611 1294.43,-13.406 1295.74,-12.445C1296.69,-11.739 1297.91,-11.182 1299.25,-11.182C1301,-11.182 1302.21,-11.754 1303.01,-12.545C1303.86,-13.392 1304.27,-14.528 1304.27,-15.724C1304.27,-17.701 1302.99,-18.951 1301.29,-19.95C1300.41,-20.467 1299.41,-20.919 1298.64,-21.525C1298.16,-21.901 1297.77,-22.343 1297.77,-23.024C1297.77,-23.3 1297.87,-23.67 1298.12,-23.878C1298.44,-24.134 1298.98,-24.213 1299.25,-24.213C1300.61,-24.213 1301.16,-23.092 1301.16,-23.092L1303.71,-24.275ZM1229.13,-24.275C1229.13,-24.275 1227.89,-27.022 1224.67,-27.022C1223.79,-27.022 1222.42,-26.419 1221.51,-25.471C1220.81,-24.755 1220.39,-23.872 1220.39,-23.024C1220.39,-20.532 1222.28,-19.185 1224.37,-18.044C1224.96,-17.722 1225.55,-17.409 1226.05,-17.038C1226.5,-16.699 1226.88,-16.325 1226.88,-15.724C1226.88,-15.283 1226.77,-14.851 1226.45,-14.538C1226.08,-14.17 1225.49,-13.991 1224.67,-13.991C1223.96,-13.991 1223.34,-14.333 1222.83,-14.708C1221.93,-15.365 1221.37,-16.184 1221.37,-16.184L1219.05,-14.611C1219.05,-14.611 1219.86,-13.406 1221.16,-12.445C1222.12,-11.739 1223.33,-11.182 1224.67,-11.182C1226.42,-11.182 1227.63,-11.754 1228.43,-12.545C1229.29,-13.392 1229.69,-14.528 1229.69,-15.724C1229.69,-17.701 1228.42,-18.951 1226.71,-19.95C1225.83,-20.467 1224.84,-20.919 1224.07,-21.525C1223.59,-21.901 1223.2,-22.343 1223.2,-23.024C1223.2,-23.3 1223.34,-23.648 1223.6,-23.856C1223.91,-24.113 1224.4,-24.213 1224.67,-24.213C1226.04,-24.213 1226.59,-23.092 1226.59,-23.092L1229.13,-24.275ZM1284.88,-11.182C1288.73,-11.182 1292.8,-14.27 1292.8,-19.043C1292.8,-23.813 1289.16,-27.024 1284.95,-27.024C1280.28,-27.024 1277.21,-23.173 1277.21,-19.102C1277.21,-15.027 1280.26,-11.182 1284.88,-11.182ZM1318.86,-26.796L1315.88,-26.796L1311.9,-19.947L1307.84,-26.796L1304.58,-26.796L1304.58,-26.795L1310.5,-16.804L1310.5,-11.364L1313.31,-11.364L1313.31,-16.777L1319.13,-26.789L1318.86,-26.796ZM1248.85,-11.364L1248.85,-19.832C1248.85,-19.832 1253.5,-14.917 1253.5,-14.917L1258.37,-19.908C1258.37,-19.908 1258.37,-11.364 1258.37,-11.364L1261.18,-11.364L1261.18,-26.809L1253.53,-18.97C1253.53,-18.97 1246.04,-26.885 1246.04,-26.885L1246.04,-11.364L1248.85,-11.364ZM1267.66,-14.834C1268.79,-14.914 1270.41,-15.134 1271.83,-15.724C1273.83,-16.559 1275.42,-18.073 1275.42,-20.604C1275.42,-23.369 1273.84,-24.996 1271.89,-25.922C1269.36,-27.123 1264.85,-26.645 1264.85,-26.645L1264.85,-11.364L1267.66,-11.364L1267.66,-14.834ZM1244.48,-26.68L1241.24,-26.68L1237.33,-19.947L1233.34,-26.68L1230.07,-26.68L1235.93,-16.804L1235.93,-11.364L1238.74,-11.364L1238.74,-16.777L1244.49,-26.677L1244.48,-26.68ZM1284.88,-13.991C1281.92,-13.991 1280.02,-16.494 1280.02,-19.102C1280.02,-21.713 1281.95,-24.215 1284.95,-24.215C1287.67,-24.215 1289.99,-22.12 1289.99,-19.043C1289.99,-15.97 1287.36,-13.991 1284.88,-13.991ZM1267.66,-17.64C1268.62,-17.64 1272.62,-17.682 1272.62,-20.604C1272.62,-24.227 1268.57,-24.157 1267.66,-24.157L1267.66,-17.64ZM1258.26,-58.927L1255.39,-58.927C1256.56,-52.628 1261.46,-48.966 1267.71,-48.492L1267.71,-33.371C1265.29,-33.23 1262.88,-32.735 1260.46,-31.894L1260.46,-28.901C1266.27,-31.156 1272.07,-31.187 1277.88,-28.842L1277.88,-31.848C1275.42,-32.731 1272.97,-33.237 1270.52,-33.374L1270.52,-48.486C1275.47,-48.817 1279.02,-50.913 1281.03,-54.109C1283.19,-57.538 1283.6,-62.332 1281.82,-67.811L1281.76,-67.995L1278.86,-67.995C1273.79,-64.911 1265.65,-63.881 1258.49,-64.142C1259.1,-67.892 1260.59,-71.776 1262.76,-75.506C1262.76,-75.506 1275.38,-75.473 1275.38,-75.473C1276.42,-73.901 1277.33,-72.172 1278.16,-70.351L1281.23,-70.351C1280.09,-73.002 1278.81,-75.499 1277.27,-77.686L1276.85,-78.278L1261.17,-78.319L1260.76,-77.641C1257.85,-72.836 1255.99,-67.76 1255.51,-62.956L1255.36,-61.505L1256.82,-61.413C1264.56,-60.926 1273.73,-61.975 1279.63,-65.205C1280.54,-61.399 1280.21,-58.072 1278.65,-55.606C1276.91,-52.832 1273.63,-51.249 1269.11,-51.249C1263.82,-51.249 1259.44,-53.91 1258.26,-58.927Z"/>
            </g>
        </g>
    </g>
</svg>
