<?xml version="1.0" encoding="UTF-8" standalone="no"?>
<!DOCTYPE svg PUBLIC "-//W3C//DTD SVG 1.1//EN" "http://www.w3.org/Graphics/SVG/1.1/DTD/svg11.dtd">
<svg width="100%" height="100%" viewBox="0 0 101 101" version="1.1" xmlns="http://www.w3.org/2000/svg" xmlns:xlink="http://www.w3.org/1999/xlink" xml:space="preserve" xmlns:serif="http://www.serif.com/" style="fill-rule:evenodd;clip-rule:evenodd;stroke-linejoin:round;stroke-miterlimit:2;">
    <g transform="matrix(1,0,0,1,-1398,-3)">
        <g id="Synd" transform="matrix(1,0,0,1,1398.31,3.85573)">
            <rect x="0" y="0" width="100" height="100" style="fill:none;"/>
            <g transform="matrix(0.134892,0,0,0.134892,-35.2179,0.643651)">
                <path d="M550.762,582.082C549.484,590.47 548.338,598.881 542.538,605.678C542.94,606.216 543.147,606.601 543.451,606.881C544.807,608.132 546.157,609.392 547.57,610.577C564.052,624.401 582.398,634.99 602.794,641.857C623.113,648.699 643.88,651.609 665.242,647.931C696.393,642.569 723.522,628.832 747.392,608.353C748.32,607.557 749.106,606.596 750.067,605.601C745.782,601.297 744.196,596.008 743.007,590.582C741.242,582.518 740.408,574.345 740.432,566.084C740.479,549.039 740.534,531.993 740.582,514.947L740.47,515.016C738.372,516.329 736.386,517.806 734.546,519.462C732.666,521.155 730.93,523.036 729.169,524.836C724.541,529.567 719.918,534.304 715.299,539.045C702.596,552.082 689.922,565.146 677.244,578.206L675.141,580.372C675.225,588.552 675.242,596.732 675.212,604.912C675.185,612.112 673.459,618.994 669.561,625.156C664.133,633.735 656.39,638.782 646.2,639.528C636.964,640.205 628.531,636.302 622.778,629.213L622.259,629.461L619.905,630.578L618.47,628.403C618.037,627.748 617.624,627.073 617.23,626.379L615.657,623.608L618.458,622.233C618.392,622.091 618.328,621.948 618.265,621.804C615.413,615.306 614.643,608.441 614.644,601.43C614.646,568.872 614.644,536.315 614.645,503.763C613.884,502.832 613.118,501.907 612.346,500.986L612.346,500.986C603.361,490.269 593.633,480.194 583.316,470.627C587.569,488.763 587.264,507.025 583.381,525.399L583.381,525.399C582.636,528.92 581.47,532.199 579.89,535.465L579.89,535.465C578.555,538.227 577.587,541.314 577.195,544.355L577.195,544.355C576.495,549.767 574.593,554.688 572.07,559.341C569.223,564.595 565.778,569.506 561.55,573.803C558.894,576.505 556.015,578.816 552.935,580.777C552.222,581.231 551.497,581.667 550.762,582.082ZM577.32,525.002C577.387,524.723 577.451,524.441 577.511,524.158C581.64,504.619 581.55,485.212 575.879,465.956C575.637,465.135 575.468,464.291 575.114,462.827L573.179,454.831L579.807,459.705C580.973,460.562 581.627,460.98 582.198,461.49L582.198,461.49C594.639,472.627 606.302,484.438 616.944,497.131C624.943,506.672 632.367,516.711 639.101,527.346C645.099,536.815 650.367,546.661 654.269,557.196L654.269,557.196C656.764,563.931 658.608,570.828 659.185,578.024L659.185,578.024C659.699,584.443 658.764,590.397 655.667,595.918C658.511,592.401 661.079,588.626 663.31,584.543L663.31,584.542C663.894,583.475 664.713,582.497 665.569,581.616L665.569,581.616C668.027,579.086 670.482,576.557 672.939,574.027C691.387,555.025 709.824,536.011 728.356,517.089L728.356,517.089C731.595,513.784 735.198,511.048 739.124,508.845L739.125,508.845C742.718,506.831 746.579,505.26 750.708,504.156L750.708,504.156C767.626,499.634 783.818,500.704 799.392,506.619C795.822,504.014 791.984,501.8 787.882,499.981L787.881,499.981C775.481,494.482 762.488,492.676 749.028,493.888C747.557,494.021 746.084,494.121 744.114,494.276L737.476,494.799L741.482,489.481C742.283,488.418 742.805,487.831 743.222,487.174L743.222,487.174C745.683,483.297 748.565,479.616 750.499,475.49L750.499,475.49C756.508,462.677 757.639,449.062 756.112,435.151L756.111,435.151C755.074,425.698 751.799,416.86 748.378,408.066C745.473,400.601 742.388,393.188 739.892,385.585C739.111,383.206 738.347,380.821 737.578,378.437L737.578,378.437C733.355,365.353 729.291,352.215 725.251,339.072L725.251,339.072C723.34,332.853 722.198,326.526 721.845,320.104L721.845,320.104C721.666,316.844 721.677,313.559 721.922,310.249C722.479,302.69 725.183,296.229 730.694,290.824L730.694,290.824C732.744,288.813 734.904,286.991 737.167,285.338C732.009,287.38 726.979,289.728 722.089,292.403L722.089,292.404C717.33,295.007 712.771,297.873 708.455,301.056L708.281,301.185C703.368,304.825 698.777,308.882 694.626,313.509C692.87,315.467 691.25,317.513 689.785,319.662C688.42,321.663 687.189,323.752 686.108,325.939C685.766,326.629 685.44,327.329 685.129,328.04C681.592,336.111 680.672,344.293 684.041,352.656L684.041,352.657C684.217,353.093 684.288,353.58 684.414,354.201L684.882,356.522L682.732,357.517C681.05,358.295 679.337,358.998 677.687,359.817L676.783,360.283C676.585,360.389 676.388,360.496 676.193,360.604C675.603,360.931 675.022,361.269 674.451,361.615L674.353,361.674C668.474,365.255 663.738,369.948 662.005,376.965L662.005,376.965C660.926,381.333 658.706,384.495 655.784,387.503L655.783,387.503C655.137,388.167 654.535,388.874 653.915,389.564C650.252,393.65 647.453,398.235 645.565,403.411C645.406,403.848 645.256,404.287 645.115,404.728L645.327,404.437C649.441,398.878 654.728,394.842 661.631,393.26C666.375,392.17 671.163,392.065 675.762,392.821C685.37,394.399 694.137,399.781 699.863,408.15L699.863,408.15C706.842,418.351 712.202,429.343 715.555,441.251C717.372,447.698 718.925,454.222 720.492,460.737L720.493,460.737C720.957,462.671 721.126,464.694 721.245,466.69C721.82,476.205 721.651,485.709 720.708,495.197C719.179,510.589 712.812,523.35 700.277,532.769L700.276,532.77C699.296,533.504 698.315,534.238 697.193,535.081L694.219,537.313L692.666,533.934C692.222,532.969 691.954,532.453 691.749,531.916C688.119,522.407 683.368,513.463 678.047,504.808L678.047,504.808C676.352,502.052 674.594,499.345 672.803,496.661L672.802,496.661C662.816,481.68 651.419,467.788 639.125,454.608L639.125,454.608C630.658,445.53 621.854,436.845 612.649,428.634C599.704,417.088 585.955,406.488 571.169,397.126L571.169,397.126C564.588,392.96 557.833,389.149 550.804,385.881C546.377,383.822 541.846,381.976 537.175,380.405L537.175,380.405C530.748,378.242 524.339,377.834 517.993,380.158C513.245,381.896 508.433,383.754 504.123,386.349L504.123,386.349C488.152,395.962 474.73,408.076 464.103,422.813C467.323,419.679 471.051,417.158 475.29,415.341L475.29,415.341C478.328,414.039 481.82,412.88 485.003,413.077C490.864,413.44 496.823,414.136 502.464,415.697C513.046,418.625 522.392,424.256 530.841,431.162C537.693,436.762 543.782,442.822 549.128,449.323L549.128,448.753L554.592,456.483C565.035,471.254 572.009,488.086 575.546,506.904L575.546,506.904C576.421,511.558 576.996,516.21 577.217,520.853L577.271,522.167L577.312,523.908C577.317,524.272 577.319,524.637 577.32,525.002ZM555.155,468.438C555.162,476.274 555.167,484.111 555.185,491.947C555.197,497.458 553.7,501.849 550.306,505.921C546.694,510.257 543.094,514.607 539.62,519.055C538.223,520.846 536.932,522.721 535.586,524.685C541.159,527.395 544.859,531.756 547.535,537.173L547.535,537.173C548.664,539.459 549.764,541.791 550.551,544.21L550.551,544.21C553.25,552.522 554.81,560.948 554.845,569.522C559.011,565.622 562.3,560.856 564.866,555.369L565.424,554.138L565.91,553.003L566.314,552.007L566.613,551.237C567.197,549.704 567.734,548.125 568.226,546.503L568.226,546.502C570.062,540.445 571.022,534.341 571.26,528.214C571.521,521.501 570.916,514.759 569.648,508.012L569.648,508.012C568.505,501.929 566.988,496.064 565.092,490.417L564.654,489.137L564.221,487.912L563.651,486.363L563.189,485.149L562.591,483.637L562.117,482.48L561.639,481.344L561.183,480.291L560.679,479.16L560.163,478.032L559.646,476.934L559.14,475.885L558.588,474.771L558.026,473.668L557.468,472.6L556.915,471.567L556.314,470.472L555.515,469.059L555.155,468.438ZM675.292,398.829C675.294,399.338 675.294,399.848 675.294,400.357C675.262,430.158 675.178,459.96 675.374,489.761C676.189,490.944 676.996,492.135 677.794,493.332C679.626,496.077 681.425,498.846 683.158,501.665C688.34,510.093 692.991,518.79 696.655,527.985L696.674,527.971C707.794,519.615 713.381,508.26 714.737,494.604C715.649,485.433 715.811,476.247 715.256,467.05L715.256,467.049C715.157,465.404 715.042,463.734 714.659,462.14C713.11,455.7 711.576,449.251 709.78,442.878L709.78,442.878C706.605,431.602 701.519,421.198 694.911,411.538C690.23,404.697 683.116,400.248 675.292,398.829ZM614.647,332.906C601.108,340.509 587.809,348.53 574.711,356.908C567.746,361.364 560.546,364.948 553.135,367.705C552.786,367.835 552.436,367.963 552.086,368.089C552.082,372.012 552.073,375.936 552.07,379.86C552.492,380.051 552.913,380.245 553.334,380.44L553.334,380.44C560.597,383.818 567.579,387.752 574.378,392.057C588.686,401.115 602.041,411.31 614.646,422.389L614.647,332.906ZM548.9,157.891C548.87,157.271 548.835,156.652 548.796,156.033C546.69,157.954 544.616,159.919 542.577,161.927C536.513,167.898 531.065,174.399 526.443,181.574C525.226,183.466 524.798,185.352 525.214,187.642C526.596,195.22 529.461,202.261 532.512,209.243L532.512,209.243C539.443,225.107 546.459,240.933 553.434,256.778C553.636,257.235 553.756,257.731 553.907,258.22L554.821,261.175L551.841,261.999C549.994,262.51 549.011,261.792 548.717,261.554L548.717,261.553C548.24,261.167 547.759,260.786 547.288,260.393C547.52,260.629 547.751,260.865 547.98,261.103L547.994,261.104L548.862,262.033C554.896,268.494 559.882,275.858 563.849,284.086C566.716,290.029 569.052,296.427 570.869,303.261L570.869,303.261C574.508,316.951 572.568,330.081 568.062,342.926C567.433,344.718 566.755,346.504 566.035,348.285C565.029,350.774 563.392,352.48 561.126,353.541L560.441,353.862C558.103,354.962 555.777,356.103 553.444,357.218L549.098,359.295L549.098,359.244C546.883,360.242 544.647,361.182 542.37,362.014L542.37,362.014C527.228,367.537 511.943,366.548 496.749,361.943C492.037,360.517 487.582,358.527 483.687,355.462L483.687,355.461C480.698,353.108 478.201,349.73 476.777,345.944C476.46,350.938 478.39,355.411 482.43,359.177L482.43,359.178C484.05,360.688 485.955,361.953 487.886,363.057C493.393,366.203 499.469,367.651 505.717,368.146L505.717,368.146C521.618,369.406 536.755,367.398 551.043,362.082L551.043,362.082C558.062,359.47 564.88,356.074 571.477,351.854L571.477,351.854C585.148,343.11 599.034,334.753 613.184,326.848L613.184,326.848C618.636,323.803 624.123,320.819 629.653,317.916C630.684,317.374 631.78,316.957 633.164,316.347L637.525,314.425L637.372,319.188C637.333,320.407 637.348,320.994 637.281,321.571C635.679,335.454 633.437,349.229 630.711,362.925C631.933,360.735 633.171,358.552 634.343,356.337C634.982,355.128 635.701,353.857 635.902,352.533C636.397,349.271 636.715,345.956 636.774,342.656L636.774,342.656C636.931,334.103 636.89,325.555 638.468,317.087C639.025,314.091 640.285,312.332 643.027,311.063L643.027,311.063C646.169,309.609 649.293,308.118 652.416,306.626L651.511,305.144L651.367,304.913C650.785,303.982 650.188,303.058 649.574,302.141C649.474,302.188 649.374,302.236 649.278,302.282C648.232,302.784 647.156,303.221 645.938,303.756L642.135,305.426L641.745,301.291C641.633,300.096 641.575,299.563 641.666,299.081L641.667,299.075C642.056,297.064 642.416,295.048 642.77,293.029C641.73,291.786 640.665,290.573 639.576,289.386C639.421,293.833 638.958,298.269 638.82,302.716C638.709,306.292 637.265,308.297 634.127,309.953C628.134,313.118 622.214,316.405 616.355,319.788L616.148,319.907C612.251,322.159 608.383,324.459 604.543,326.809C598.457,330.533 592.447,334.378 586.515,338.35C583.036,340.68 579.585,343.052 576.161,345.469L576.161,345.469C575.516,345.924 574.776,346.249 574.075,346.626L567.612,350.097L569.791,343.092C570.348,341.301 571.203,339.895 572.125,338.529L572.126,338.528C579.947,326.951 587.762,315.369 595.596,303.802C598.655,299.284 601.717,294.769 604.783,290.257L604.783,290.257C606.74,287.378 608.686,284.489 610.648,281.613C611.992,279.641 612.311,277.753 611.818,275.447L611.818,275.447C610.895,271.127 609.254,267.139 607.187,263.348C594.058,255.173 580.255,248.208 566.53,241.11L565.105,240.373C564.888,240.261 564.671,240.148 564.454,240.034C561.579,238.527 558.74,236.94 555.829,235.513C555.188,235.199 554.543,234.893 553.894,234.597L553.894,234.597C551.961,233.716 550.784,232.586 550.037,231.233C549.344,229.979 549.021,228.473 549.03,226.58L549.03,226.58C549.124,205.585 549.153,184.587 549.05,163.59L549.05,163.59C549.043,162.203 549.016,160.818 548.966,159.436L548.9,157.891ZM728.341,325.199L728.356,325.314C728.733,328.077 729.249,330.817 729.929,333.522C730.666,336.457 731.609,339.338 732.5,342.228C733.005,343.867 733.511,345.506 734.017,347.145C736.041,353.701 738.087,360.25 740.155,366.792L740.367,367.461C740.358,366.113 740.348,364.764 740.337,363.415C740.294,358.227 739.418,352.941 738.167,347.889C736.132,339.665 732.688,332.184 728.341,325.199ZM729.513,213.38C732.18,213.382 734.824,213.257 737.445,212.997C737.446,198.054 737.422,183.111 737.477,168.167C737.5,161.681 737.704,155.158 738.443,148.724L738.443,148.724C739.464,139.855 740.691,130.952 746.238,123.297C744.153,121.159 742.154,119.058 739.979,117.157C720.213,99.886 697.047,89.727 671.455,84.764C666.297,83.764 661.078,83.078 655.887,82.254C655.887,82.254 638.61,82.254 638.608,82.254C637.51,82.539 636.415,82.894 635.299,83.004L635.298,83.004C620.095,84.489 605.43,88.145 591.318,93.969L591.318,93.969C575.002,100.702 560.082,109.642 547.479,122.157C547.067,122.566 546.675,122.996 546.29,123.435C549.222,127.253 550.708,131.463 551.8,135.864C552.466,138.548 553.017,141.247 553.465,143.959L553.589,143.852L554.186,149.052L554.237,149.493C554.624,152.86 554.864,156.242 554.976,159.636C555.019,160.944 555.044,162.252 555.05,163.562C555.153,184.576 555.124,205.592 555.03,226.607L555.03,226.607C555.027,227.3 555.035,227.872 555.288,228.331C555.487,228.69 555.869,228.903 556.382,229.136L556.382,229.137C557.072,229.451 557.756,229.776 558.437,230.11C561.403,231.565 564.296,233.178 567.225,234.712C567.438,234.824 567.652,234.935 567.865,235.046L569.17,235.721C583.31,243.033 597.528,250.209 611.03,258.673L611.03,258.673C612.235,259.43 613.445,260.177 614.64,260.955C621.053,265.134 627.182,269.641 632.919,274.603L632.904,274.308L638.369,279.574C639.063,280.242 639.75,280.917 640.43,281.6L641.612,282.802C643.921,285.181 646.144,287.656 648.259,290.252L649.155,291.35L649.152,291.367C649.986,292.421 650.796,293.487 651.584,294.561L651.606,294.55L653.06,296.617C654.41,298.535 655.69,300.482 656.904,302.458C657.718,303.781 658.503,305.116 659.26,306.463L660.831,309.26L660.791,309.279C668.141,323.238 672.604,338.404 675.229,354.342C676.082,353.925 676.95,353.535 677.821,353.147C674.595,343.814 675.676,334.662 679.633,325.631L679.633,325.631C679.983,324.832 680.351,324.045 680.735,323.269C681.913,320.886 683.25,318.607 684.732,316.422C686.371,314.004 688.187,311.701 690.16,309.502L690.16,309.502C693.782,305.465 697.715,301.833 701.895,298.52C699.933,296.668 697.935,294.857 695.898,293.089L695.522,292.764C692.504,290.158 689.411,287.636 686.264,285.176L685.787,284.803C682.1,281.933 678.34,279.144 674.52,276.426L674.52,276.426C656.562,263.641 637.535,252.591 618.091,242.278L618.091,242.278C615.543,240.926 613.948,239.428 612.94,237.64C611.948,235.879 611.51,233.783 611.546,231.048C611.677,221.058 611.692,211.066 611.681,201.074L611.681,201.074C611.675,195.045 611.664,189.017 611.655,182.986L611.655,182.986C611.653,180.852 611.648,178.72 611.648,176.586C611.648,156.997 611.625,137.409 611.658,117.821L611.658,117.82C611.678,106.681 616.031,97.687 625.955,92.211C637.884,85.627 650.297,85.189 662.607,91.233C666.942,93.361 670.496,96.273 673.111,99.939L673.327,99.755L675.056,103.139C675.151,103.326 675.244,103.514 675.335,103.704C675.554,104.163 675.761,104.633 675.956,105.112C676.045,105.331 676.132,105.551 676.216,105.774L676.857,107.466L676.819,107.509C676.988,108.047 677.141,108.596 677.276,109.159L677.276,109.16C678.043,112.378 678.24,115.798 678.247,119.128L678.247,119.128C678.283,139.775 678.288,160.422 678.289,181.07C683.63,189.707 690.69,197.568 699.307,204.697C702.307,207.178 705.537,208.985 708.959,210.283C711.764,211.347 714.697,212.069 717.738,212.542C718.944,212.73 720.167,212.878 721.407,212.993L721.407,212.993C723.384,213.177 725.35,213.296 727.304,213.349L728.535,213.373L729.513,213.38ZM554.527,279.452L554.393,279.231C554.994,282.587 555.184,286.088 555.175,289.708L555.175,289.708C555.124,309.724 555.117,329.742 555.105,349.759L557.703,348.519L558.573,348.112C559.46,347.697 560.078,347.011 560.472,346.037L560.472,346.037C561.16,344.334 561.81,342.627 562.41,340.916C566.519,329.217 568.384,317.27 565.07,304.802C564.232,301.648 563.277,298.592 562.203,295.636L561.658,294.169L561.105,292.749L560.562,291.415L560.03,290.163L559.456,288.861L558.887,287.625L558.437,286.679L557.824,285.432L557.201,284.214L556.554,282.995L555.897,281.804L555.217,280.616L554.527,279.452ZM611.645,315.583C611.643,314.344 611.632,313.105 611.641,311.866L611.641,311.866C611.68,306.461 610.085,301.624 607.324,297.195C603.437,302.922 599.556,308.653 595.678,314.386L593.699,317.313C589.992,322.795 586.29,328.278 582.587,333.76C586.014,331.459 589.466,329.2 592.943,326.982L594.72,325.853C600.297,322.326 605.94,318.904 611.645,315.583ZM698.096,287.069C707.715,283.543 717.477,280.408 727.442,277.835C733.424,276.289 739.455,274.982 745.573,274.249C744.68,274.238 743.784,274.243 742.887,274.259C729.823,274.494 717.154,277.172 704.645,280.717C701.162,281.704 697.708,282.768 694.278,283.893C695.562,284.939 696.835,285.997 698.096,287.069ZM740.337,249.808L740.033,250.123C738.731,251.462 737.398,252.771 735.99,253.999C734.886,254.961 733.798,255.884 732.445,256.469C731.615,256.829 730.733,257.083 729.833,257.191C729.358,257.247 728.88,257.245 728.402,257.266C727.907,257.287 727.413,257.318 726.919,257.357C724.954,257.511 723.003,257.803 721.072,258.195C718.802,258.656 716.578,259.306 714.313,259.785C711.448,260.392 708.546,260.8 705.626,261.018L705.621,261.018C706.143,261.18 706.668,261.335 707.194,261.485C721.375,265.511 735.912,266.638 750.575,266.626C750.888,266.625 751.201,266.26 751.628,265.994C749.537,264.235 747.572,262.616 745.642,260.955C742.193,257.985 740.461,254.502 740.337,249.808ZM672.289,182.742C663.658,168.148 659.537,151.517 660.638,132.656C660.997,126.495 662.227,120.707 664.478,115.466C657.206,122.101 650.221,129.041 643.674,136.458C636.581,144.494 629.933,152.859 624.258,161.947L624.184,162.07L624.726,162.121L627.165,162.359L627.418,164.797C627.515,165.737 627.696,166.683 627.671,167.618L627.671,167.619C627.348,179.421 629.329,190.846 633.555,201.839C641.046,221.325 653.316,236.899 671.735,247.136L671.736,247.136C680.191,251.837 688.962,254.578 698.039,255.089L698.039,255.089C703.879,255.418 709.844,254.833 715.932,253.238C720.241,252.107 724.544,251.352 729.001,251.242L729.002,251.242C729.58,251.228 730.242,250.964 730.696,250.603C732.602,249.088 734.365,247.369 736.054,245.606L736.054,245.606C736.764,244.864 737.469,244.116 738.178,243.373C749.143,231.873 759.876,220.169 770.172,208.079C767.891,209.578 765.5,210.936 762.981,212.128L762.981,212.128C756.634,215.129 750.113,217.121 743.444,218.246L743.444,218.289L740.844,218.64C736.682,219.2 732.463,219.435 728.194,219.369C725.763,219.331 723.316,219.196 720.853,218.968L720.853,218.968C719.556,218.848 718.274,218.693 717.008,218.5C713.225,217.924 709.591,217.004 706.131,215.622C702.364,214.118 698.804,212.068 695.482,209.32L695.482,209.32C686.083,201.544 678.445,192.934 672.721,183.466L672.289,182.75L672.289,182.742Z" style="fill-rule:nonzero;"/>
            </g>
        </g>
    </g>
</svg>
