<?xml version="1.0" encoding="UTF-8" standalone="no"?>
<!DOCTYPE svg PUBLIC "-//W3C//DTD SVG 1.1//EN" "http://www.w3.org/Graphics/SVG/1.1/DTD/svg11.dtd">
<svg width="100%" height="100%" viewBox="0 0 101 100" version="1.1" xmlns="http://www.w3.org/2000/svg" xmlns:xlink="http://www.w3.org/1999/xlink" xml:space="preserve" xmlns:serif="http://www.serif.com/" style="fill-rule:evenodd;clip-rule:evenodd;stroke-linejoin:round;stroke-miterlimit:2;">
    <g transform="matrix(1,0,0,1,-746,0)">
        <g id="Ycure" transform="matrix(1,0,0,1,746.728,0)">
            <rect x="0" y="0" width="100" height="100" style="fill:none;"/>
            <g transform="matrix(0.00503522,0,0,0.00503522,47.8805,48.4914)">
                <g transform="matrix(31.3234,0,0,31.3234,-2002.36,4270.03)">
                    <path d="M0,61.593C-8.829,53.123 -13.244,42.857 -13.244,30.796C-13.244,18.737 -8.829,8.472 0,0C8.758,-8.542 19.203,-12.813 31.335,-12.813C43.61,-12.813 54.126,-8.542 62.885,0C68.822,5.746 72.701,12.275 74.519,19.586C74.833,20.85 73.861,22.074 72.559,22.074L53.879,22.074C53.106,22.074 52.389,21.637 52.069,20.934C51.005,18.588 49.513,16.456 47.594,14.537C43.215,10.159 37.796,7.968 31.335,7.968C25.017,7.968 19.634,10.195 15.183,14.645C10.731,19.097 8.507,24.481 8.507,30.796C8.507,37.114 10.731,42.498 15.183,46.948C19.634,51.401 25.017,53.625 31.335,53.625C37.724,53.625 43.143,51.401 47.594,46.948C50.24,44.303 52.084,41.325 53.127,38.016C53.391,37.181 54.161,36.611 55.037,36.611L73.135,36.611C74.389,36.611 75.343,37.749 75.12,38.984C73.548,47.668 69.47,55.205 62.885,61.593C54.126,70.136 43.61,74.406 31.335,74.406C19.203,74.406 8.758,70.136 0,61.593" style="fill-rule:nonzero;"/>
                </g>
                <g transform="matrix(31.3234,0,0,31.3234,948.854,4249.78)">
                    <path d="M0,62.886C-6.748,55.923 -10.122,46.913 -10.122,35.859L-10.122,-8.542C-10.122,-9.651 -9.222,-10.552 -8.111,-10.552L9.404,-10.552C10.515,-10.552 11.415,-9.651 11.415,-8.542L11.415,34.566C11.415,40.596 12.85,45.156 15.722,48.241C18.592,51.471 22.828,53.086 28.428,53.086C34.098,53.086 38.369,51.471 41.241,48.241C44.185,45.083 45.656,40.526 45.656,34.566L45.656,-8.542C45.656,-9.651 46.557,-10.552 47.667,-10.552L65.074,-10.552C66.184,-10.552 67.084,-9.651 67.084,-8.542L67.084,35.859C67.084,46.699 63.674,55.708 56.854,62.886C50.106,69.921 40.631,73.438 28.428,73.438C16.223,73.438 6.747,69.921 0,62.886" style="fill-rule:nonzero;"/>
                </g>
                <g transform="matrix(31.3234,0,0,31.3234,4443.15,5305.53)">
                    <path d="M0,-4.523C8.255,-4.523 12.384,-8.328 12.384,-15.937C12.384,-19.168 11.377,-21.822 9.368,-23.905C7.357,-25.986 4.235,-27.028 0,-27.028L-12.311,-27.028C-13.421,-27.028 -14.321,-26.127 -14.321,-25.017L-14.321,-6.533C-14.321,-5.422 -13.421,-4.523 -12.311,-4.523L0,-4.523ZM-35.857,-42.247C-35.857,-43.356 -34.957,-44.256 -33.847,-44.256L1.185,-44.256C11.737,-44.256 19.884,-41.565 25.628,-36.18C31.298,-30.724 34.134,-24.012 34.134,-16.044C34.134,-7.716 31.298,-0.862 25.628,4.522C24.331,5.765 22.852,6.886 21.189,7.884C20.26,8.442 19.921,9.622 20.438,10.574L34.674,36.763C35.401,38.102 34.433,39.733 32.908,39.733L17.13,39.733C16.395,39.733 15.718,39.331 15.365,38.686L1.756,13.752C1.404,13.107 0.728,12.706 -0.008,12.706L-12.311,12.706C-13.421,12.706 -14.321,13.605 -14.321,14.715L-14.321,37.723C-14.321,38.832 -15.221,39.733 -16.331,39.733L-33.847,39.733C-34.957,39.733 -35.857,38.832 -35.857,37.723L-35.857,-42.247Z" style="fill-rule:nonzero;"/>
                </g>
                <g transform="matrix(31.3234,0,0,31.3234,5912.6,6550.09)">
                    <path d="M0,-83.989L60.479,-83.989C61.59,-83.989 62.49,-83.089 62.49,-81.979L62.49,-65.109C62.49,-63.999 61.59,-63.099 60.479,-63.099L21.536,-63.099C20.426,-63.099 19.526,-62.199 19.526,-61.09L19.526,-53.05C19.526,-51.939 20.426,-51.04 21.536,-51.04L47.773,-51.04C48.884,-51.04 49.784,-50.139 49.784,-49.03L49.784,-33.559C49.784,-32.449 48.884,-31.55 47.773,-31.55L21.536,-31.55C20.426,-31.55 19.526,-30.649 19.526,-29.539L19.526,-22.792C19.526,-21.681 20.426,-20.781 21.536,-20.781L60.479,-20.781C61.59,-20.781 62.49,-19.882 62.49,-18.771L62.49,-2.01C62.49,-0.9 61.59,0 60.479,0L0,0C-1.11,0 -2.011,-0.9 -2.011,-2.01L-2.011,-81.979C-2.011,-83.089 -1.11,-83.989 0,-83.989" style="fill-rule:nonzero;"/>
                </g>
                <g transform="matrix(31.3234,0,0,31.3234,-684.303,4468.62)">
                    <path d="M0,-108.442L-64.838,-170.495C-66.816,-172.388 -70,-172.073 -71.601,-169.848C-88.9,-145.82 -121.777,-142.63 -144.014,-163.568C-144.419,-163.951 -144.855,-164.301 -145.292,-164.652C-145.497,-164.817 -145.09,-164.485 -145.292,-164.652C-147.358,-165.448 -153.594,-152.583 -111.616,-103.929C-110.568,-102.715 -110.814,-100.83 -111.616,-99.439C-138.161,-53.422 -164.707,-7.407 -191.25,38.612C-194.758,44.693 -198.243,50.786 -201.925,57.212C-203.641,60.208 -201.479,63.946 -198.025,63.946L-197.957,63.946C-173.462,63.944 -148.968,63.944 -124.473,63.942C-104.925,63.94 -90.349,55.406 -80.595,38.485C-55.975,-4.224 -31.461,-46.996 -6.64,-89.588L-6.819,-89.759C-4.284,-94.157 -1.749,-98.552 0.786,-102.95C1.82,-104.743 1.496,-107.01 0,-108.442" style="fill-rule:nonzero;"/>
                </g>
                <g transform="matrix(31.3234,0,0,31.3234,-3008.78,-1467.07)">
                    <path d="M0,-114.396C-0.064,-116.815 -1.327,-118.951 -3.364,-120.083C-5.4,-121.217 -7.939,-121.198 -10.127,-120.032C-30.099,-109.308 -74.694,-83.898 -85.736,-65.25C-98.695,-43.365 -92.397,-16.236 -71.681,-4.707C-50.964,6.821 -23.623,-1.588 -10.664,-23.475C0.378,-42.122 0.521,-92.27 0,-114.396"/>
                </g>
                <g transform="matrix(31.3234,0,0,31.3234,3389.63,884.179)">
                    <path d="M0,-219.824C-24.495,-219.823 -48.99,-219.822 -73.485,-219.82C-93.033,-219.819 -107.61,-211.284 -117.364,-194.363C-141.395,-152.676 -165.324,-110.93 -189.538,-69.349C-190.582,-67.555 -190.263,-65.281 -188.763,-63.845L-124.158,-2.015C-122.052,0 -118.614,-0.492 -117.157,-3.017C-80.347,-66.845 -43.521,-130.665 -6.708,-194.49C-3.2,-200.571 0.286,-206.664 3.967,-213.092C5.683,-216.088 3.521,-219.824 0.068,-219.824L0,-219.824Z" style="fill-rule:nonzero;"/>
                </g>
            </g>
        </g>
    </g>
</svg>
