<?xml version="1.0" encoding="UTF-8" standalone="no"?>
<!DOCTYPE svg PUBLIC "-//W3C//DTD SVG 1.1//EN" "http://www.w3.org/Graphics/SVG/1.1/DTD/svg11.dtd">
<svg width="100%" height="100%" viewBox="0 0 100 100" version="1.1" xmlns="http://www.w3.org/2000/svg" xmlns:xlink="http://www.w3.org/1999/xlink" xml:space="preserve" xmlns:serif="http://www.serif.com/" style="fill-rule:evenodd;clip-rule:evenodd;stroke-linejoin:round;stroke-miterlimit:2;">
    <rect id="Монтажная-область1" serif:id="Монтажная область1" x="0" y="0" width="100" height="100" style="fill:rgb(230,230,230);"/>
    <g id="Монтажная-область11" serif:id="Монтажная область1">
        <g transform="matrix(0.636032,0,0,0.636032,14.4595,7.28216)">
            <g>
                <path d="M63.062,33.211C61.174,31.487 58.749,30.532 56.187,30.532C50.577,30.532 46.031,35.073 46.031,40.674C46.031,43.211 46.979,45.641 48.687,47.511C50.572,49.237 53.008,50.197 55.568,50.197C61.177,50.197 65.726,45.656 65.726,40.055L65.726,39.935L65.72,39.69L65.71,39.445L65.702,39.32L65.691,39.198L65.667,38.956L65.656,38.837L65.641,38.718L65.605,38.478L65.586,38.359L65.565,38.242L65.521,38.009L65.47,37.777L65.413,37.544L65.352,37.316L65.286,37.088L65.214,36.865L65.138,36.642L65.057,36.426L65.009,36.306L64.97,36.206L64.878,35.991L64.782,35.777L64.682,35.57L64.574,35.359L64.467,35.159L64.35,34.954L64.291,34.854L64.232,34.756L64.043,34.462L63.981,34.369L63.849,34.179L63.713,33.994L63.571,33.808L63.498,33.717L63.427,33.628L63.283,33.456L63.126,33.281L63.062,33.211ZM48.361,47.898C46.16,45.868 44.908,43.053 44.908,40.055C44.908,34.177 49.68,29.411 55.567,29.411C58.551,29.411 61.378,30.653 63.4,32.836L63.504,32.933L63.7,33.121L63.886,33.312L63.979,33.41L64.073,33.511L64.25,33.711L64.336,33.811L64.425,33.917L64.594,34.126L64.759,34.344L64.915,34.56L65.069,34.784L65.214,35.006C65.311,35.159 65.404,35.316 65.492,35.475L65.624,35.714L65.748,35.958L65.807,36.079L65.865,36.204L65.977,36.45L66.031,36.576L66.084,36.704L66.184,36.96L66.276,37.218L66.362,37.481L66.442,37.747L66.514,38.014L66.58,38.284L66.639,38.558L66.691,38.832L66.737,39.111L66.774,39.391L66.803,39.673L66.815,39.811L66.826,39.956L66.841,40.247L66.845,40.387L66.848,40.533L66.849,40.674C66.849,46.555 62.074,51.318 56.186,51.318C53.201,51.318 50.381,50.08 48.361,47.898ZM45.814,50.388C48.455,52.808 51.859,54.142 55.447,54.142C63.306,54.142 69.676,47.781 69.676,39.934C69.676,36.371 68.344,32.962 65.937,30.338C63.297,27.922 59.889,26.586 56.306,26.586C48.449,26.586 42.079,32.949 42.079,40.794C42.079,44.363 43.407,47.762 45.814,50.388ZM66.275,29.963C69.315,32.765 71.041,36.657 71.041,40.794C71.041,48.92 64.445,55.507 56.306,55.507C52.179,55.507 48.27,53.787 45.477,50.764C42.44,47.962 40.714,44.064 40.714,39.933C40.714,31.811 47.312,25.224 55.447,25.224C59.578,25.224 63.48,26.937 66.275,29.963ZM41.953,26.439C38.593,30.091 36.742,34.808 36.742,39.771C36.742,50.651 45.576,59.47 56.472,59.47C61.421,59.47 66.154,57.629 69.799,54.295C73.157,50.643 75.014,45.918 75.014,40.959C75.014,30.079 66.181,21.257 55.284,21.257C50.326,21.257 45.599,23.098 41.953,26.439ZM41.571,26.108C45.423,21.933 50.782,19.567 56.472,19.567C67.647,19.567 76.706,28.612 76.706,39.77C76.706,45.432 74.346,50.794 70.181,54.626C66.329,58.795 60.967,61.16 55.284,61.16C44.11,61.16 35.049,52.116 35.049,40.959C35.049,35.294 37.406,29.941 41.571,26.108ZM74.165,58.644C78.574,53.851 81.002,47.654 81.002,41.142C81.002,26.857 69.407,15.276 55.099,15.276C48.591,15.276 42.373,17.7 37.584,22.09C33.181,26.881 30.751,33.084 30.751,39.588C30.751,53.872 42.349,65.452 56.655,65.452C63.165,65.452 69.373,63.033 74.165,58.644ZM37.214,21.746C42.241,16.305 49.236,13.223 56.656,13.223C71.24,13.223 83.061,25.026 83.061,39.588C83.061,46.983 79.977,53.982 74.535,58.987C69.511,64.425 62.513,67.508 55.101,67.508C40.517,67.508 28.693,55.704 28.693,41.142C28.693,33.744 31.773,26.755 37.214,21.746ZM78.643,17.662C72.673,12.185 64.954,9.17 56.844,9.17C39.056,9.17 24.635,23.567 24.635,41.329C24.635,49.412 27.655,57.137 33.13,63.084C39.096,68.547 46.817,71.56 54.913,71.56C72.702,71.56 87.121,57.162 87.121,39.401C87.121,31.319 84.11,23.611 78.643,17.662ZM32.774,63.441C26.024,57.227 22.201,48.574 22.201,39.4C22.201,21.362 36.847,6.739 54.912,6.739C64.086,6.739 72.772,10.554 78.981,17.287C85.731,23.498 89.555,32.16 89.555,41.329C89.555,59.367 74.91,73.989 56.844,73.989C47.663,73.989 38.987,70.178 32.774,63.441ZM83.022,13.28C75.905,6.753 66.698,3.159 57.029,3.159C35.812,3.159 18.614,20.331 18.614,41.515C18.614,51.157 22.215,60.367 28.746,67.461C35.861,73.977 45.071,77.572 54.728,77.572C75.943,77.572 93.142,60.399 93.142,39.216C93.142,29.574 89.548,20.375 83.022,13.28ZM83.371,12.917C91.401,20.307 95.944,30.604 95.944,41.513C95.944,62.972 78.521,80.37 57.029,80.37C46.111,80.37 35.782,75.832 28.391,67.817C20.36,60.43 15.812,50.123 15.812,39.217C15.812,17.756 33.234,0.359 54.728,0.359C65.653,0.359 75.98,4.898 83.371,12.917Z" style="fill:white;"/>
                <path d="M12.422,132.377C12.422,132.673 12.464,132.912 12.545,133.089C12.629,133.27 12.817,133.361 13.112,133.361L13.309,133.361L13.309,133.558L12.422,133.558C12.251,133.558 12.11,133.543 11.995,133.514C11.881,133.484 11.787,133.424 11.719,133.337C11.65,133.247 11.603,133.129 11.576,132.978C11.55,132.828 11.536,132.626 11.536,132.377L11.536,130.413L8.584,130.413L8.584,133.558L7.698,133.558L7.698,128.248C7.698,127.956 7.659,127.717 7.575,127.537C7.493,127.357 7.304,127.266 7.009,127.266L6.811,127.266L6.811,127.07L7.698,127.07C7.868,127.07 8.011,127.085 8.125,127.114C8.241,127.143 8.332,127.203 8.401,127.291C8.47,127.379 8.518,127.501 8.544,127.654C8.57,127.808 8.584,128.007 8.584,128.248L8.584,130.019L11.536,130.019L11.536,127.07L12.422,127.07L12.422,132.377ZM19.039,127.07L19.039,127.462L16.824,127.462L16.824,133.558L15.937,133.558L15.937,127.462L15.051,127.462C14.659,127.462 14.353,127.553 14.141,127.734C13.927,127.914 13.821,128.201 13.821,128.592L13.625,128.592L13.625,127.857C13.625,127.758 13.634,127.662 13.659,127.567C13.681,127.472 13.724,127.388 13.787,127.316C13.849,127.243 13.934,127.185 14.042,127.139C14.15,127.092 14.29,127.07 14.461,127.07L19.039,127.07ZM23.508,127.07C23.679,127.07 23.818,127.092 23.927,127.139C24.034,127.185 24.12,127.243 24.183,127.316C24.245,127.388 24.287,127.472 24.31,127.567C24.332,127.662 24.346,127.758 24.346,127.857L24.346,128.592L24.148,128.592C24.148,128.201 24.04,127.914 23.828,127.734C23.614,127.553 23.31,127.462 22.917,127.462L21.087,127.462L21.087,130.018L23.744,130.018L23.744,130.413L21.087,130.413L21.087,133.164L22.809,133.164C23.254,133.164 23.608,133.082 23.867,132.918C24.125,132.755 24.33,132.476 24.483,132.081L24.681,132.132L24.334,133.065C24.282,133.216 24.195,133.336 24.073,133.424C23.953,133.513 23.794,133.558 23.597,133.558L20.201,133.558L20.201,128.248C20.201,127.955 20.16,127.717 20.078,127.537C19.995,127.356 19.807,127.267 19.512,127.267L19.315,127.267L19.315,127.07L23.508,127.07ZM27.634,130.559C27.771,130.559 27.925,130.534 28.1,130.481C28.274,130.427 28.439,130.34 28.598,130.215C28.756,130.09 28.886,129.93 28.996,129.729C29.104,129.529 29.158,129.283 29.158,128.988C29.158,128.691 29.104,128.445 28.996,128.245C28.886,128.044 28.756,127.882 28.598,127.758C28.439,127.633 28.274,127.546 28.1,127.492C27.925,127.44 27.771,127.414 27.634,127.414C27.507,127.414 27.378,127.423 27.244,127.444C27.108,127.462 26.993,127.484 26.894,127.512L26.894,130.46C26.993,130.488 27.108,130.511 27.244,130.531C27.378,130.548 27.507,130.559 27.634,130.559ZM26.894,133.558L26.008,133.558L26.008,128.248C26.008,127.955 25.967,127.716 25.885,127.539C25.801,127.356 25.613,127.267 25.319,127.267L25.122,127.267L25.122,127.07L27.682,127.07C27.892,127.07 28.138,127.088 28.419,127.129C28.702,127.168 28.972,127.256 29.227,127.39C29.482,127.524 29.7,127.722 29.877,127.984C30.054,128.247 30.143,128.596 30.143,129.037C30.143,129.318 30.102,129.559 30.02,129.758C29.938,129.958 29.832,130.128 29.7,130.266C29.568,130.404 29.423,130.514 29.261,130.6C29.1,130.684 28.94,130.749 28.78,130.792C28.618,130.833 28.468,130.863 28.328,130.878C28.184,130.896 28.069,130.904 27.977,130.904L26.894,130.904L26.894,133.558ZM35.035,131.691C35.035,131.172 34.876,130.789 34.558,130.54C34.24,130.289 33.808,130.167 33.263,130.167C33.112,130.167 32.955,130.177 32.795,130.2C32.633,130.225 32.479,130.259 32.328,130.305L32.328,133.076C32.479,133.122 32.633,133.156 32.795,133.18C32.955,133.203 33.112,133.213 33.263,133.213C33.808,133.213 34.24,133.089 34.558,132.839C34.876,132.59 35.035,132.208 35.035,131.691ZM32.328,129.824L33.411,129.824C33.693,129.824 33.989,129.845 34.296,129.891C34.604,129.938 34.886,130.029 35.144,130.167C35.4,130.305 35.608,130.494 35.772,130.738C35.938,130.979 36.019,131.294 36.019,131.691C36.019,132.082 35.938,132.401 35.772,132.645C35.608,132.886 35.4,133.076 35.144,133.213C34.886,133.351 34.604,133.444 34.296,133.489C33.989,133.535 33.693,133.557 33.411,133.557L31.442,133.557L31.442,128.249C31.442,127.955 31.401,127.716 31.319,127.538C31.235,127.356 31.047,127.267 30.752,127.267L30.555,127.267L30.555,127.07L31.442,127.07C31.613,127.07 31.754,127.084 31.87,127.114C31.983,127.144 32.077,127.204 32.145,127.291C32.214,127.38 32.263,127.5 32.289,127.655C32.315,127.809 32.328,128.006 32.328,128.249L32.328,129.824ZM40.548,127.07C40.718,127.07 40.857,127.092 40.967,127.139C41.076,127.185 41.16,127.243 41.222,127.316C41.284,127.388 41.327,127.472 41.351,127.567C41.373,127.662 41.384,127.758 41.384,127.857L41.384,128.592L41.187,128.592C41.187,128.201 41.081,127.914 40.869,127.734C40.655,127.553 40.351,127.462 39.956,127.462L38.126,127.462L38.126,130.018L40.785,130.018L40.785,130.413L38.126,130.413L38.126,133.164L39.849,133.164C40.295,133.164 40.647,133.082 40.908,132.918C41.167,132.755 41.371,132.476 41.522,132.081L41.72,132.132L41.375,133.065C41.321,133.216 41.235,133.336 41.115,133.424C40.994,133.513 40.833,133.558 40.636,133.558L37.24,133.558L37.24,128.248C37.24,127.955 37.199,127.717 37.117,127.537C37.036,127.356 36.847,127.267 36.551,127.267L36.354,127.267L36.354,127.07L40.548,127.07ZM44.673,130.559C44.811,130.559 44.967,130.534 45.141,130.481C45.313,130.427 45.481,130.34 45.638,130.215C45.796,130.09 45.928,129.93 46.036,129.729C46.146,129.529 46.2,129.283 46.2,128.988C46.2,128.691 46.146,128.445 46.036,128.245C45.928,128.044 45.796,127.882 45.638,127.758C45.481,127.633 45.313,127.546 45.141,127.492C44.967,127.44 44.811,127.414 44.673,127.414C44.549,127.414 44.418,127.423 44.285,127.444C44.15,127.462 44.033,127.484 43.934,127.512L43.934,130.46C44.033,130.488 44.15,130.511 44.285,130.531C44.418,130.548 44.549,130.559 44.673,130.559ZM43.934,133.558L43.048,133.558L43.048,128.248C43.048,127.955 43.009,127.716 42.925,127.539C42.843,127.356 42.655,127.267 42.359,127.267L42.161,127.267L42.161,127.07L44.722,127.07C44.932,127.07 45.178,127.088 45.459,127.129C45.742,127.168 46.011,127.256 46.267,127.39C46.524,127.524 46.742,127.722 46.916,127.984C47.093,128.247 47.185,128.596 47.185,129.037C47.185,129.318 47.142,129.559 47.06,129.758C46.978,129.958 46.871,130.128 46.742,130.266C46.61,130.404 46.462,130.514 46.302,130.6C46.14,130.684 45.98,130.749 45.82,130.792C45.658,130.833 45.507,130.863 45.368,130.878C45.226,130.896 45.108,130.904 45.018,130.904L43.934,130.904L43.934,133.558ZM51.642,128.408C51.642,128.604 51.677,128.788 51.746,128.958C51.815,129.128 51.891,129.279 51.977,129.409C52.061,129.542 52.143,129.647 52.219,129.729C52.293,129.811 52.342,129.859 52.361,129.87C52.61,129.662 52.824,129.437 53.001,129.199C53.178,128.958 53.267,128.674 53.267,128.347C53.267,128.139 53.243,127.96 53.193,127.817C53.143,127.672 53.079,127.557 53.001,127.468C52.921,127.379 52.837,127.316 52.745,127.277C52.653,127.238 52.565,127.217 52.478,127.217C52.381,127.217 52.283,127.238 52.184,127.277C52.085,127.316 51.995,127.382 51.913,127.477C51.83,127.574 51.765,127.697 51.716,127.847C51.666,127.996 51.642,128.183 51.642,128.408ZM52.568,133.41C52.869,133.41 53.143,133.363 53.384,133.272C53.626,133.181 53.846,133.06 54.043,132.91L52.016,130.699C51.792,130.887 51.61,131.091 51.465,131.311C51.32,131.532 51.249,131.789 51.249,132.081C51.249,132.966 51.689,133.41 52.568,133.41ZM50.313,132.18C50.313,131.978 50.352,131.792 50.432,131.624C50.509,131.459 50.617,131.301 50.746,131.156C50.878,131.007 51.028,130.87 51.199,130.74C51.37,130.615 51.543,130.483 51.722,130.353C51.531,130.19 51.359,130.005 51.21,129.803C51.078,129.631 50.962,129.427 50.86,129.187C50.757,128.95 50.707,128.687 50.707,128.408C50.707,127.935 50.866,127.561 51.184,127.286C51.502,127.01 51.934,126.872 52.478,126.872C52.997,126.872 53.398,127.005 53.679,127.267C53.961,127.529 54.103,127.857 54.103,128.248C54.103,128.479 54.064,128.686 53.984,128.87C53.908,129.052 53.8,129.221 53.669,129.376C53.539,129.529 53.386,129.675 53.211,129.812C53.038,129.95 52.856,130.083 52.666,130.215L54.645,132.377C54.783,132.227 54.906,132.08 55.013,131.935C55.121,131.792 55.214,131.662 55.295,131.542C55.379,131.404 55.458,131.273 55.532,131.149L55.727,131.296C55.669,131.427 55.596,131.565 55.511,131.708C55.438,131.834 55.347,131.974 55.235,132.132C55.123,132.289 54.996,132.446 54.852,132.604L55.727,133.558L54.645,133.558L54.25,133.134C54.014,133.311 53.743,133.459 53.433,133.577C53.125,133.696 52.774,133.753 52.381,133.753C52.033,133.753 51.732,133.712 51.474,133.63C51.219,133.548 51.005,133.437 50.83,133.297C50.657,133.157 50.525,132.991 50.441,132.799C50.357,132.61 50.313,132.404 50.313,132.18ZM59.468,127.07C59.639,127.07 59.781,127.084 59.897,127.115C60.012,127.143 60.103,127.203 60.172,127.291C60.241,127.379 60.288,127.501 60.316,127.654C60.341,127.808 60.355,128.007 60.355,128.248L60.355,130.167L62.421,128.102C62.545,127.978 62.665,127.855 62.781,127.734C62.896,127.613 63.017,127.501 63.145,127.405C63.274,127.306 63.413,127.226 63.568,127.165C63.723,127.102 63.9,127.07 64.095,127.07L64.588,127.07L64.588,127.316C64.319,127.316 64.079,127.364 63.873,127.458C63.666,127.553 63.428,127.736 63.16,128.003L61.241,129.921L63.504,132.272C63.773,132.554 64.058,132.797 64.358,133.002C64.655,133.208 64.929,133.328 65.178,133.361L65.178,133.558C65.106,133.582 65.018,133.606 64.915,133.627C64.815,133.645 64.689,133.657 64.538,133.657C64.4,133.657 64.259,133.642 64.11,133.612C63.96,133.582 63.801,133.523 63.627,133.435C63.454,133.346 63.268,133.225 63.071,133.077C62.875,132.926 62.658,132.725 62.421,132.476L60.355,130.313L60.355,133.558L59.468,133.558L59.468,128.248C59.468,127.955 59.427,127.717 59.345,127.537C59.264,127.356 59.076,127.267 58.78,127.267L58.581,127.267L58.581,127.07L59.468,127.07ZM69.441,127.07C69.611,127.07 69.75,127.092 69.86,127.139C69.968,127.185 70.052,127.243 70.116,127.316C70.176,127.388 70.219,127.472 70.244,127.567C70.266,127.662 70.278,127.758 70.278,127.857L70.278,128.592L70.081,128.592C70.081,128.201 69.974,127.914 69.761,127.734C69.547,127.553 69.244,127.462 68.849,127.462L67.019,127.462L67.019,130.018L69.678,130.018L69.678,130.413L67.019,130.413L67.019,133.164L68.741,133.164C69.188,133.164 69.54,133.082 69.8,132.918C70.059,132.755 70.264,132.476 70.415,132.081L70.613,132.132L70.268,133.065C70.214,133.216 70.128,133.336 70.007,133.424C69.886,133.513 69.726,133.558 69.529,133.558L66.133,133.558L66.133,128.248C66.133,127.955 66.091,127.717 66.01,127.537C65.928,127.356 65.74,127.267 65.444,127.267L65.246,127.267L65.246,127.07L69.441,127.07ZM73.564,130.559C73.702,130.559 73.861,130.534 74.034,130.481C74.206,130.427 74.372,130.34 74.531,130.215C74.687,130.09 74.821,129.93 74.929,129.729C75.036,129.529 75.091,129.283 75.091,128.988C75.091,128.691 75.036,128.445 74.929,128.245C74.821,128.044 74.687,127.882 74.531,127.758C74.372,127.633 74.206,127.546 74.034,127.492C73.861,127.44 73.702,127.414 73.564,127.414C73.44,127.414 73.311,127.423 73.175,127.444C73.042,127.462 72.925,127.484 72.827,127.512L72.827,130.46C72.925,130.488 73.042,130.511 73.175,130.531C73.311,130.548 73.44,130.559 73.564,130.559ZM72.827,133.558L71.941,133.558L71.941,128.248C71.941,127.955 71.9,127.716 71.818,127.539C71.736,127.356 71.547,127.267 71.251,127.267L71.054,127.267L71.054,127.07L73.615,127.07C73.823,127.07 74.071,127.088 74.352,127.129C74.634,127.168 74.905,127.256 75.16,127.39C75.416,127.524 75.632,127.722 75.809,127.984C75.987,128.247 76.076,128.596 76.076,129.037C76.076,129.318 76.035,129.559 75.953,129.758C75.869,129.958 75.763,130.128 75.632,130.266C75.5,130.404 75.356,130.514 75.195,130.6C75.033,130.684 74.873,130.749 74.711,130.792C74.551,130.833 74.4,130.863 74.259,130.878C74.119,130.896 74.001,130.904 73.909,130.904L72.827,130.904L72.827,133.558ZM77.296,131.296L79.709,131.296L78.527,128.447L77.296,131.296ZM82.219,133.558C82.106,133.589 81.975,133.606 81.825,133.606C81.713,133.606 81.584,133.593 81.435,133.567C81.29,133.541 81.137,133.484 80.985,133.394C80.829,133.306 80.677,133.178 80.53,133.008C80.381,132.836 80.256,132.61 80.151,132.33L79.905,131.689L77.15,131.689L76.362,133.558L75.918,133.558L78.674,127.07L78.97,127.07L81.137,132.33C81.213,132.513 81.29,132.667 81.357,132.795C81.426,132.924 81.503,133.026 81.587,133.104C81.673,133.184 81.764,133.242 81.864,133.283C81.962,133.322 82.081,133.348 82.219,133.361L82.219,133.558ZM90.232,134C89.876,134 89.581,133.959 89.345,133.877C89.109,133.794 88.923,133.669 88.786,133.498C88.647,133.33 88.548,133.11 88.495,132.84C88.439,132.571 88.411,132.252 88.411,131.886L88.411,128.102L85.95,133.558L85.752,133.558L83.192,128.003L83.192,133.558L82.799,133.558L82.799,127.07L83.734,127.07L86.096,132.18L88.411,127.07L89.297,127.07L89.297,131.886C89.297,132.484 89.371,132.95 89.523,133.291C89.673,133.632 89.91,133.803 90.232,133.803L90.232,134ZM95.39,127.955L92.24,133.558L91.353,133.558L91.353,128.248C91.353,127.955 91.312,127.716 91.23,127.537C91.148,127.356 90.96,127.267 90.664,127.267L90.469,127.267L90.469,127.07L91.353,127.07C91.525,127.07 91.668,127.084 91.783,127.115C91.896,127.142 91.988,127.202 92.057,127.291C92.125,127.378 92.172,127.501 92.201,127.654C92.226,127.808 92.24,128.007 92.24,128.248L92.24,132.673L95.39,127.07L96.276,127.07L96.276,133.558L95.39,133.558L95.39,127.955ZM98.164,127.07C98.336,127.07 98.478,127.084 98.593,127.115C98.708,127.143 98.799,127.203 98.869,127.291C98.937,127.379 98.986,127.501 99.012,127.654C99.038,127.808 99.051,128.007 99.051,128.248L99.051,130.167L101.12,128.102C101.243,127.978 101.362,127.855 101.477,127.734C101.593,127.613 101.716,127.501 101.844,127.405C101.971,127.306 102.11,127.226 102.265,127.165C102.419,127.102 102.597,127.07 102.792,127.07L103.285,127.07L103.285,127.316C103.015,127.316 102.777,127.364 102.57,127.458C102.364,127.553 102.128,127.736 101.857,128.003L99.937,129.921L102.202,132.272C102.47,132.554 102.755,132.797 103.055,133.002C103.352,133.208 103.626,133.328 103.876,133.361L103.876,133.558C103.805,133.582 103.716,133.606 103.615,133.627C103.513,133.645 103.386,133.657 103.235,133.657C103.097,133.657 102.956,133.642 102.806,133.612C102.66,133.582 102.5,133.523 102.325,133.435C102.151,133.346 101.966,133.225 101.768,133.077C101.572,132.926 101.354,132.725 101.12,132.476L99.051,130.313L99.051,133.558L98.164,133.558L98.164,128.248C98.164,127.955 98.125,127.717 98.042,127.537C97.959,127.356 97.772,127.267 97.476,127.267L97.279,127.267L97.279,127.07L98.164,127.07ZM105.381,131.296L107.794,131.296L106.613,128.447L105.381,131.296ZM110.304,133.558C110.193,133.589 110.061,133.606 109.91,133.606C109.799,133.606 109.669,133.593 109.521,133.567C109.374,133.541 109.223,133.484 109.069,133.394C108.915,133.306 108.764,133.178 108.617,133.008C108.468,132.836 108.342,132.61 108.237,132.33L107.989,131.689L105.233,131.689L104.446,133.558L104.005,133.558L106.76,127.07L107.056,127.07L109.222,132.33C109.3,132.513 109.374,132.667 109.443,132.795C109.512,132.924 109.589,133.026 109.674,133.104C109.76,133.184 109.851,133.242 109.95,133.283C110.048,133.322 110.166,133.348 110.304,133.361L110.304,133.558ZM4.922,127.955L1.772,133.558L0.886,133.558L0.886,128.248C0.886,127.955 0.845,127.716 0.763,127.537C0.681,127.356 0.493,127.267 0.197,127.267L0,127.267L0,127.07L0.886,127.07C1.056,127.07 1.2,127.084 1.316,127.115C1.429,127.142 1.52,127.202 1.589,127.291C1.658,127.378 1.705,127.501 1.733,127.654C1.759,127.808 1.772,128.007 1.772,128.248L1.772,132.673L4.922,127.07L5.808,127.07L5.808,133.558L4.922,133.558L4.922,127.955Z" style="fill:white;fill-rule:nonzero;"/>
                <path d="M35.755,105.242C35.755,103.737 35.602,102.376 35.295,101.159C34.986,99.941 34.547,98.904 33.973,98.047C33.401,97.188 32.702,96.532 31.873,96.077C31.046,95.622 30.113,95.394 29.075,95.394C28.036,95.394 27.103,95.622 26.275,96.077C25.448,96.532 24.748,97.188 24.175,98.047C23.603,98.904 23.163,99.941 22.856,101.159C22.549,102.376 22.393,103.737 22.393,105.242C22.393,106.745 22.549,108.104 22.856,109.324C23.163,110.541 23.603,111.579 24.175,112.435C24.748,113.292 25.448,113.949 26.275,114.404C27.103,114.861 28.036,115.087 29.075,115.087C30.113,115.087 31.046,114.861 31.873,114.404C32.702,113.949 33.401,113.292 33.973,112.435C34.547,111.579 34.986,110.541 35.295,109.324C35.602,108.104 35.755,106.745 35.755,105.242ZM19.213,105.242C19.213,103.695 19.44,102.245 19.896,100.887C20.352,99.535 21.009,98.353 21.87,97.349C22.728,96.343 23.766,95.553 24.988,94.981C26.205,94.409 27.569,94.123 29.075,94.123C30.579,94.123 31.942,94.409 33.163,94.981C34.381,95.553 35.422,96.343 36.28,97.349C37.139,98.353 37.795,99.535 38.251,100.887C38.708,102.245 38.936,103.695 38.936,105.242C38.936,106.808 38.708,108.264 38.251,109.608C37.795,110.952 37.139,112.128 36.28,113.134C35.422,114.14 34.381,114.928 33.163,115.5C31.942,116.072 30.579,116.358 29.075,116.358C27.569,116.358 26.205,116.072 24.988,115.5C23.766,114.928 22.728,114.14 21.87,113.134C21.009,112.128 20.352,110.952 19.896,109.608C19.44,108.264 19.213,106.808 19.213,105.242ZM46.571,114.198C47.815,114.473 48.89,114.611 49.799,114.611C50.958,114.611 52.044,114.393 53.057,113.96C54.069,113.525 54.945,112.903 55.682,112.086C56.421,111.27 57,110.287 57.421,109.132C57.844,107.978 58.056,106.68 58.056,105.242C58.056,103.843 57.85,102.569 57.438,101.414C57.027,100.26 56.453,99.269 55.714,98.443C54.975,97.618 54.094,96.982 53.074,96.538C52.05,96.094 50.937,95.871 49.736,95.871C49.271,95.871 48.77,95.913 48.231,95.997C47.694,96.083 47.14,96.211 46.571,96.381L46.571,114.198ZM49.021,94.759C51.12,94.759 52.954,95.003 54.525,95.49C56.094,95.976 57.393,96.664 58.421,97.555C59.449,98.443 60.223,99.527 60.743,100.81C61.264,102.09 61.523,103.525 61.523,105.113C61.523,106.66 61.274,108.084 60.776,109.385C60.278,110.688 59.54,111.805 58.564,112.737C57.589,113.67 56.375,114.401 54.923,114.928C53.469,115.458 51.779,115.722 49.849,115.722L43.549,115.722L43.549,98.57C43.549,97.618 43.415,96.85 43.151,96.268C42.886,95.684 42.277,95.395 41.323,95.395L40.685,95.395L40.685,94.759L49.021,94.759ZM65.754,94.759L68.619,94.759L68.619,111.91C68.619,112.863 68.75,113.63 69.014,114.214C69.281,114.796 69.889,115.086 70.843,115.086L71.482,115.086L71.482,115.722L68.619,115.722C68.067,115.722 67.603,115.673 67.233,115.58C66.862,115.485 66.566,115.294 66.341,115.008C66.12,114.722 65.965,114.335 65.883,113.848C65.795,113.362 65.754,112.716 65.754,111.91L65.754,94.759ZM77.143,108.417L84.937,108.417L81.12,99.206L77.143,108.417ZM93.048,115.723C92.688,115.829 92.263,115.88 91.775,115.88C91.416,115.88 90.997,115.839 90.521,115.754C90.041,115.67 89.554,115.485 89.057,115.199C88.558,114.913 88.07,114.494 87.593,113.944C87.115,113.394 86.707,112.663 86.367,111.752L85.574,109.689L76.667,109.689L74.12,115.723L72.69,115.723L81.597,94.76L82.552,94.76L89.548,111.752C89.804,112.345 90.041,112.849 90.265,113.26C90.489,113.674 90.738,114.007 91.014,114.261C91.287,114.516 91.585,114.706 91.904,114.834C92.22,114.96 92.604,115.044 93.048,115.086L93.048,115.723ZM110.483,101.428C110.079,99.354 109.331,97.83 108.241,96.854C107.147,95.882 105.721,95.395 103.962,95.395C102.922,95.395 101.941,95.567 101.017,95.917C100.097,96.267 99.286,96.84 98.585,97.633C97.886,98.427 97.332,99.472 96.931,100.761C96.527,102.053 96.326,103.652 96.326,105.557C96.326,106.746 96.469,107.907 96.755,109.052C97.042,110.196 97.493,111.212 98.107,112.103C98.723,112.992 99.511,113.71 100.477,114.261C101.442,114.813 102.604,115.086 103.962,115.086C105.551,115.086 106.92,114.707 108.064,113.943C109.21,113.181 110.228,112.081 111.118,110.64L111.757,111.118C111.247,112.112 110.679,112.943 110.054,113.611C109.428,114.278 108.754,114.817 108.033,115.23C107.312,115.644 106.533,115.934 105.694,116.105C104.857,116.272 103.962,116.358 103.007,116.358C101.5,116.358 100.139,116.078 98.919,115.516C97.7,114.955 96.661,114.187 95.8,113.213C94.942,112.241 94.283,111.097 93.828,109.783C93.372,108.469 93.146,107.061 93.146,105.557C93.146,103.97 93.404,102.483 93.924,101.094C94.444,99.71 95.149,98.498 96.038,97.459C96.931,96.421 97.975,95.606 99.172,95.012C100.372,94.419 101.649,94.124 103.007,94.124C104.767,94.124 106.283,94.373 107.555,94.871C108.828,95.367 109.752,95.966 110.325,96.664C110.725,97.152 110.96,97.83 111.023,98.698C111.087,99.566 111.118,100.477 111.118,101.428L110.483,101.428ZM17.782,94.759L4.261,114.453L17.305,114.453L17.305,115.722L0.284,115.722L0.284,115.086L13.486,96.029L5.852,96.029C4.579,96.029 3.598,96.321 2.909,96.902C2.22,97.486 1.876,98.412 1.876,99.683L1.239,99.683L1.239,97.301C1.239,96.982 1.274,96.67 1.351,96.363C1.424,96.057 1.561,95.787 1.764,95.553C1.965,95.32 2.241,95.129 2.591,94.982C2.941,94.834 3.389,94.759 3.943,94.759L17.782,94.759Z" style="fill:white;fill-rule:nonzero;"/>
            </g>
        </g>
    </g>
</svg>
